999
dxfrw 0.6.3
  0
SECTION
  2
HEADER
  9
$ACADVER
  1
AC1021
  9
$DWGCODEPAGE
  3
ANSI_1252
  9
$INSBASE
 10
0
 20
0
 30
0
  9
$EXTMIN
 10
-1.8669
 20
0
 30
0
  9
$EXTMAX
 10
140.4494
 20
48.64100000000001
 30
0
  9
$LIMMIN
 10
0
 20
0
  9
$LIMMAX
 10
420
 20
297
  9
$ORTHOMODE
 70
    0
  9
$REGENMODE
 70
    1
  9
$FILLMODE
 70
    1
  9
$QTEXTMODE
 70
    0
  9
$MIRRTEXT
 70
    0
  9
$LTSCALE
 40
1
  9
$ATTMODE
 70
    0
  9
$TEXTSIZE
 40
2.5
  9
$TRACEWID
 40
15.68
  9
$TEXTSTYLE
  7
STANDARD
  9
$CLAYER
  8
SCS_SLE
  9
$CELTYPE
  6
BYLAYER
  9
$CECOLOR
 62
  256
  9
$CELTSCALE
 40
1
  9
$DISPSILH
 70
    0
  9
$DIMSCALE
 40
0.03937008
  9
$DIMASZ
 40
0.1
  9
$DIMEXO
 40
0.025
  9
$DIMDLI
 40
3.75
  9
$DIMRND
 40
0
  9
$DIMDLE
 40
0
  9
$DIMEXE
 40
0.05
  9
$DIMTP
 40
0
  9
$DIMTM
 40
0
  9
$DIMTXT
 40
0.1
  9
$DIMCEN
 40
2.5
  9
$DIMTSZ
 40
0
  9
$DIMTOL
 70
    0
  9
$DIMLIM
 70
    0
  9
$DIMTIH
 70
    0
  9
$DIMTOH
 70
    0
  9
$DIMSE1
 70
    0
  9
$DIMSE2
 70
    0
  9
$DIMTAD
 70
    1
  9
$DIMZIN
 70
    1
  9
$DIMBLK
  1

  9
$DIMASO
 70
    1
  9
$DIMSHO
 70
    1
  9
$DIMPOST
  1

  9
$DIMAPOST
  1

  9
$DIMALT
 70
    0
  9
$DIMALTD
 70
    3
  9
$DIMALTF
 40
0.03937
  9
$DIMLFAC
 40
1
  9
$DIMTOFL
 70
    1
  9
$DIMTVP
 40
0
  9
$DIMTIX
 70
    0
  9
$DIMSOXD
 70
    0
  9
$DIMSAH
 70
    0
  9
$DIMBLK1
  1

  9
$DIMBLK2
  1

  9
$DIMSTYLE
  2
STANDARD
  9
$DIMCLRD
 70
    0
  9
$DIMCLRE
 70
    0
  9
$DIMCLRT
 70
    0
  9
$DIMTFAC
 40
1
  9
$DIMGAP
 40
0.025
  9
$DIMJUST
 70
    0
  9
$DIMSD1
 70
    0
  9
$DIMSD2
 70
    0
  9
$DIMTOLJ
 70
    0
  9
$DIMTZIN
 70
    8
  9
$DIMALTZ
 70
    0
  9
$DIMALTTZ
 70
    0
  9
$DIMUPT
 70
    0
  9
$DIMDEC
 70
    2
  9
$DIMTDEC
 70
    2
  9
$DIMALTU
 70
    2
  9
$DIMALTTD
 70
    3
  9
$DIMTXSTY
  7
standard
  9
$DIMAUNIT
 70
    0
  9
$DIMADEC
 70
    0
  9
$DIMALTRND
 40
0
  9
$DIMAZIN
 70
    0
  9
$DIMDSEP
 70
    0
  9
$DIMATFIT
 70
    3
  9
$DIMFRAC
 70
    0
  9
$DIMLDRBLK
  1
STANDARD
  9
$DIMLUNIT
 70
    2
  9
$DIMLWD
 70
   -2
  9
$DIMLWE
 70
   -2
  9
$DIMTMOVE
 70
    0
  9
$DIMFXL
 40
1
  9
$DIMFXLON
 70
    0
  9
$DIMJOGANG
 40
0.7854
  9
$DIMTFILL
 70
    0
  9
$DIMTFILLCLR
 70
    0
  9
$DIMARCSYM
 70
    0
  9
$DIMLTYPE
  6

  9
$DIMLTEX1
  6

  9
$DIMLTEX2
  6

  9
$LUNITS
 70
    2
  9
$LUPREC
 70
    4
  9
$SKETCHINC
 40
1
  9
$FILLETRAD
 40
0
  9
$AUNITS
 70
    0
  9
$AUPREC
 70
    2
  9
$MENU
  1
.
  9
$ELEVATION
 40
0
  9
$PELEVATION
 40
0
  9
$THICKNESS
 40
0
  9
$LIMCHECK
 70
    0
  9
$CHAMFERA
 40
0
  9
$CHAMFERB
 40
0
  9
$CHAMFERC
 40
0
  9
$CHAMFERD
 40
0
  9
$SKPOLY
 70
    0
  9
$USRTIMER
 70
    1
  9
$ANGBASE
 50
0
  9
$ANGDIR
 70
    0
  9
$PDMODE
 70
   96
  9
$PDSIZE
 40
-2
  9
$PLINEWID
 40
0
  9
$SPLFRAME
 70
    0
  9
$SPLINETYPE
 70
    2
  9
$SPLINESEGS
 70
    8
  9
$HANDSEED
  5
20000
  9
$SURFTAB1
 70
    6
  9
$SURFTAB2
 70
    6
  9
$SURFTYPE
 70
    6
  9
$SURFU
 70
    6
  9
$SURFV
 70
    6
  9
$UCSBASE
  2

  9
$UCSNAME
  2

  9
$UCSORG
 10
0
 20
0
 30
0
  9
$UCSXDIR
 10
1
 20
0
 30
0
  9
$UCSYDIR
 10
0
 20
1
 30
0
  9
$UCSORTHOREF
  2

  9
$UCSORTHOVIEW
 70
    0
  9
$UCSORGTOP
 10
0
 20
0
 30
0
  9
$UCSORGBOTTOM
 10
0
 20
0
 30
0
  9
$UCSORGLEFT
 10
0
 20
0
 30
0
  9
$UCSORGRIGHT
 10
0
 20
0
 30
0
  9
$UCSORGFRONT
 10
0
 20
0
 30
0
  9
$UCSORGBACK
 10
0
 20
0
 30
0
  9
$PUCSBASE
  2

  9
$PUCSNAME
  2

  9
$PUCSORG
 10
0
 20
0
 30
0
  9
$PUCSXDIR
 10
1
 20
0
 30
0
  9
$PUCSYDIR
 10
0
 20
1
 30
0
  9
$PUCSORTHOREF
  2

  9
$PUCSORTHOVIEW
 70
    0
  9
$PUCSORGTOP
 10
0
 20
0
 30
0
  9
$PUCSORGBOTTOM
 10
0
 20
0
 30
0
  9
$PUCSORGLEFT
 10
0
 20
0
 30
0
  9
$PUCSORGRIGHT
 10
0
 20
0
 30
0
  9
$PUCSORGFRONT
 10
0
 20
0
 30
0
  9
$PUCSORGBACK
 10
0
 20
0
 30
0
  9
$USERI1
 70
    0
  9
$USERI2
 70
    0
  9
$USERI3
 70
    0
  9
$USERI4
 70
    0
  9
$USERI5
 70
    0
  9
$USERR1
 40
0
  9
$USERR2
 40
0
  9
$USERR3
 40
0
  9
$USERR4
 40
0
  9
$USERR5
 40
0
  9
$WORLDVIEW
 70
    1
  9
$SHADEDGE
 70
    3
  9
$SHADEDIF
 70
   70
  9
$TILEMODE
 70
    1
  9
$MAXACTVP
 70
   64
  9
$PINSBASE
 10
0
 20
0
 30
0
  9
$PLIMCHECK
 70
    0
  9
$PEXTMIN
 10
0
 20
0
 30
0
  9
$PEXTMAX
 10
50
 20
50
 30
50
  9
$GRIDMODE
 70
    1
  9
$SNAPSTYLE
 70
    0
  9
$GRIDUNIT
 10
0
 20
0
  9
$PLIMMIN
 10
0
 20
0
  9
$PLIMMAX
 10
7.8202e-07
 20
1.106e-06
  9
$UNITMODE
 70
    0
  9
$VISRETAIN
 70
    1
  9
$PLINEGEN
 70
    0
  9
$PSLTSCALE
 70
    1
  9
$TREEDEPTH
 70
 3020
  9
$CMLSTYLE
  2
STANDARD
  9
$CMLJUST
 70
    0
  9
$CMLSCALE
 40
20
  9
$PROXYGRAPHICS
 70
    1
  9
$MEASUREMENT
 70
    1
  9
$CELWEIGHT
370
   -1
  9
$ENDCAPS
280
    0
  9
$JOINSTYLE
280
    0
  9
$LWDISPLAY
290
    0
  9
$INSUNITS
 70
    4
  9
$HYPERLINKBASE
  1

  9
$STYLESHEET
  1

  9
$XEDIT
290
    1
  9
$CEPSNTYPE
380
    0
  9
$PSTYLEMODE
290
    1
  9
$EXTNAMES
290
    1
  9
$PSVPSCALE
 40
1
  9
$OLESTARTUP
290
    0
  9
$SORTENTS
280
  127
  9
$INDEXCTL
280
    0
  9
$HIDETEXT
280
    1
  9
$XCLIPFRAME
290
    0
  9
$HALOGAP
280
    0
  9
$OBSCOLOR
 70
  257
  9
$OBSLTYPE
280
    0
  9
$INTERSECTIONDISPLAY
280
    0
  9
$INTERSECTIONCOLOR
 70
  257
  9
$DIMASSOC
280
    1
  9
$PROJECTNAME
  1

  9
$CAMERADISPLAY
290
    0
  9
$LENSLENGTH
 40
50
  9
$CAMERAHEIGHT
 40
0
  9
$STEPSPERSEC
 40
2
  9
$STEPSIZE
 40
50
  9
$3DDWFPREC
 40
2
  9
$PSOLWIDTH
 40
5
  9
$PSOLHEIGHT
 40
80
  9
$LOFTANG1
 40
1.570796326794897
  9
$LOFTANG2
 40
1.570796326794897
  9
$LOFTMAG1
 40
0
  9
$LOFTMAG2
 40
0
  9
$LOFTPARAM
 70
    7
  9
$LOFTNORMALS
280
    1
  9
$LATITUDE
 40
1
  9
$LONGITUDE
 40
1
  9
$NORTHDIRECTION
 40
0
  9
$TIMEZONE
 70
-8000
  9
$LIGHTGLYPHDISPLAY
280
    1
  9
$TILEMODELIGHTSYNCH
280
    1
  9
$SOLIDHIST
280
    1
  9
$SHOWHIST
280
    1
  9
$DWFFRAME
280
    2
  9
$DGNFRAME
280
    0
  9
$REALWORLDSCALE
290
    1
  9
$INTERFERECOLOR
 62
    1
  9
$CSHADOW
280
    0
  9
$SHADOWPLANELOCATION
 40
0
  0
ENDSEC
  0
SECTION
  2
CLASSES
  0
ENDSEC
  0
SECTION
  2
TABLES
  0
TABLE
  2
VPORT
  5
8
330
0
100
AcDbSymbolTable
 70
    1
  0
VPORT
  5
31
330
2
100
AcDbSymbolTableRecord
100
AcDbViewportTableRecord
  2
*ACTIVE
 70
    0
 10
0
 20
0
 11
1
 21
1
 12
87.16490959758667
 22
38.97403812822606
 13
0
 23
0
 14
10
 24
10
 15
10
 25
10
 16
0
 26
0
 36
1
 17
0
 27
0
 37
0
 40
118.3265842271368
 41
1.713649851632048
 42
50
 43
0
 44
0
 50
0
 51
0
 71
    0
 72
  100
 73
    1
 74
    3
 75
    0
 76
    1
 77
    0
 78
    0
281
    0
 65
    1
110
0
120
0
130
0
111
1
121
0
131
0
112
0
122
1
132
0
 79
    0
146
0
348
10020
 60
    7
 61
    5
292
1
282
    1
141
0
142
0
 63
  250
421
3358443
  0
ENDTAB
  0
TABLE
  2
LTYPE
  5
5
330
0
100
AcDbSymbolTable
 70
    4
  0
LTYPE
  5
14
330
5
100
AcDbSymbolTableRecord
100
AcDbLinetypeTableRecord
  2
ByBlock
 70
    0
  3

 72
   65
 73
    0
 40
0
  0
LTYPE
  5
15
330
5
100
AcDbSymbolTableRecord
100
AcDbLinetypeTableRecord
  2
ByLayer
 70
    0
  3

 72
   65
 73
    0
 40
0
  0
LTYPE
  5
16
330
5
100
AcDbSymbolTableRecord
100
AcDbLinetypeTableRecord
  2
Continuous
 70
    0
  3
Solid line
 72
   65
 73
    0
 40
0
  0
LTYPE
  5
32
330
5
100
AcDbSymbolTableRecord
100
AcDbLinetypeTableRecord
  2
DOT
 70
    0
  3
Dot . . . . . . . . . . . . . . . . . . . . . .
 72
   65
 73
    2
 40
6.35
 49
0
 74
    0
 49
-6.35
 74
    0
  0
LTYPE
  5
33
330
5
100
AcDbSymbolTableRecord
100
AcDbLinetypeTableRecord
  2
DOTTINY
 70
    0
  3
Dot (.15x) .....................................
 72
   65
 73
    2
 40
0.9525
 49
0
 74
    0
 49
-0.9525
 74
    0
  0
LTYPE
  5
34
330
5
100
AcDbSymbolTableRecord
100
AcDbLinetypeTableRecord
  2
DOT2
 70
    0
  3
Dot (.5x) .....................................
 72
   65
 73
    2
 40
3.175
 49
0
 74
    0
 49
-3.175
 74
    0
  0
LTYPE
  5
35
330
5
100
AcDbSymbolTableRecord
100
AcDbLinetypeTableRecord
  2
DOTX2
 70
    0
  3
Dot (2x) .  .  .  .  .  .  .  .  .  .  .  .  .
 72
   65
 73
    2
 40
12.7
 49
0
 74
    0
 49
-12.7
 74
    0
  0
LTYPE
  5
36
330
5
100
AcDbSymbolTableRecord
100
AcDbLinetypeTableRecord
  2
DASHED
 70
    0
  3
Dashed _ _ _ _ _ _ _ _ _ _ _ _ _ _ _ _ _
 72
   65
 73
    2
 40
19.05
 49
12.7
 74
    0
 49
-6.35
 74
    0
  0
LTYPE
  5
37
330
5
100
AcDbSymbolTableRecord
100
AcDbLinetypeTableRecord
  2
DASHEDTINY
 70
    0
  3
Dashed (.15x) _ _ _ _ _ _ _ _ _ _ _ _ _ _ _ _ _
 72
   65
 73
    2
 40
2.8575
 49
1.905
 74
    0
 49
-0.9525
 74
    0
  0
LTYPE
  5
38
330
5
100
AcDbSymbolTableRecord
100
AcDbLinetypeTableRecord
  2
DASHED2
 70
    0
  3
Dashed (.5x) _ _ _ _ _ _ _ _ _ _ _ _ _ _ _ _ _
 72
   65
 73
    2
 40
9.524999999999999
 49
6.35
 74
    0
 49
-3.175
 74
    0
  0
LTYPE
  5
39
330
5
100
AcDbSymbolTableRecord
100
AcDbLinetypeTableRecord
  2
DASHEDX2
 70
    0
  3
Dashed (2x) ____  ____  ____  ____  ____  ___
 72
   65
 73
    2
 40
38.09999999999999
 49
25.4
 74
    0
 49
-12.7
 74
    0
  0
LTYPE
  5
3A
330
5
100
AcDbSymbolTableRecord
100
AcDbLinetypeTableRecord
  2
DASHDOT
 70
    0
  3
Dash dot __ . __ . __ . __ . __ . __ . __ . __
 72
   65
 73
    4
 40
25.4
 49
12.7
 74
    0
 49
-6.35
 74
    0
 49
0
 74
    0
 49
-6.35
 74
    0
  0
LTYPE
  5
3B
330
5
100
AcDbSymbolTableRecord
100
AcDbLinetypeTableRecord
  2
DASHDOTTINY
 70
    0
  3
Dash dot (.15x) _._._._._._._._._._._._._._._.
 72
   65
 73
    4
 40
3.81
 49
1.905
 74
    0
 49
-0.9525
 74
    0
 49
0
 74
    0
 49
-0.9525
 74
    0
  0
LTYPE
  5
3C
330
5
100
AcDbSymbolTableRecord
100
AcDbLinetypeTableRecord
  2
DASHDOT2
 70
    0
  3
Dash dot (.5x) _._._._._._._._._._._._._._._.
 72
   65
 73
    4
 40
12.7
 49
6.35
 74
    0
 49
-3.175
 74
    0
 49
0
 74
    0
 49
-3.175
 74
    0
  0
LTYPE
  5
3D
330
5
100
AcDbSymbolTableRecord
100
AcDbLinetypeTableRecord
  2
DASHDOTX2
 70
    0
  3
Dash dot (2x) ____  .  ____  .  ____  .  ___
 72
   65
 73
    4
 40
50.8
 49
25.4
 74
    0
 49
-12.7
 74
    0
 49
0
 74
    0
 49
-12.7
 74
    0
  0
LTYPE
  5
3E
330
5
100
AcDbSymbolTableRecord
100
AcDbLinetypeTableRecord
  2
DIVIDE
 70
    0
  3
Divide ____ . . ____ . . ____ . . ____ . . ____
 72
   65
 73
    6
 40
31.75
 49
12.7
 74
    0
 49
-6.35
 74
    0
 49
0
 74
    0
 49
-6.35
 74
    0
 49
0
 74
    0
 49
-6.35
 74
    0
  0
LTYPE
  5
3F
330
5
100
AcDbSymbolTableRecord
100
AcDbLinetypeTableRecord
  2
DIVIDETINY
 70
    0
  3
Divide (.15x) __..__..__..__..__..__..__..__.._
 72
   65
 73
    6
 40
4.7625
 49
1.905
 74
    0
 49
-0.9525
 74
    0
 49
0
 74
    0
 49
-0.9525
 74
    0
 49
0
 74
    0
 49
-0.9525
 74
    0
  0
LTYPE
  5
40
330
5
100
AcDbSymbolTableRecord
100
AcDbLinetypeTableRecord
  2
DIVIDE2
 70
    0
  3
Divide (.5x) __..__..__..__..__..__..__..__.._
 72
   65
 73
    6
 40
15.875
 49
6.35
 74
    0
 49
-3.175
 74
    0
 49
0
 74
    0
 49
-3.175
 74
    0
 49
0
 74
    0
 49
-3.175
 74
    0
  0
LTYPE
  5
41
330
5
100
AcDbSymbolTableRecord
100
AcDbLinetypeTableRecord
  2
DIVIDEX2
 70
    0
  3
Divide (2x) ________  .  .  ________  .  .  _
 72
   65
 73
    6
 40
63.5
 49
25.4
 74
    0
 49
-12.7
 74
    0
 49
0
 74
    0
 49
-12.7
 74
    0
 49
0
 74
    0
 49
-12.7
 74
    0
  0
LTYPE
  5
42
330
5
100
AcDbSymbolTableRecord
100
AcDbLinetypeTableRecord
  2
BORDER
 70
    0
  3
Border __ __ . __ __ . __ __ . __ __ . __ __ .
 72
   65
 73
    6
 40
44.45
 49
12.7
 74
    0
 49
-6.35
 74
    0
 49
12.7
 74
    0
 49
-6.35
 74
    0
 49
0
 74
    0
 49
-6.35
 74
    0
  0
LTYPE
  5
43
330
5
100
AcDbSymbolTableRecord
100
AcDbLinetypeTableRecord
  2
BORDERTINY
 70
    0
  3
Border (.15x) __.__.__.__.__.__.__.__.__.__.__.
 72
   65
 73
    6
 40
6.6675
 49
1.905
 74
    0
 49
-0.9525
 74
    0
 49
1.905
 74
    0
 49
-0.9525
 74
    0
 49
0
 74
    0
 49
-0.9525
 74
    0
  0
LTYPE
  5
44
330
5
100
AcDbSymbolTableRecord
100
AcDbLinetypeTableRecord
  2
BORDER2
 70
    0
  3
Border (.5x) __.__.__.__.__.__.__.__.__.__.__.
 72
   65
 73
    6
 40
22.225
 49
6.35
 74
    0
 49
-3.175
 74
    0
 49
6.35
 74
    0
 49
-3.175
 74
    0
 49
0
 74
    0
 49
-3.175
 74
    0
  0
LTYPE
  5
45
330
5
100
AcDbSymbolTableRecord
100
AcDbLinetypeTableRecord
  2
BORDERX2
 70
    0
  3
Border (2x) ____  ____  .  ____  ____  .  ___
 72
   65
 73
    6
 40
88.89999999999999
 49
25.4
 74
    0
 49
-12.7
 74
    0
 49
25.4
 74
    0
 49
-12.7
 74
    0
 49
0
 74
    0
 49
-12.7
 74
    0
  0
LTYPE
  5
46
330
5
100
AcDbSymbolTableRecord
100
AcDbLinetypeTableRecord
  2
CENTER
 70
    0
  3
Center ____ _ ____ _ ____ _ ____ _ ____ _ ____
 72
   65
 73
    4
 40
50.8
 49
31.75
 74
    0
 49
-6.35
 74
    0
 49
6.35
 74
    0
 49
-6.35
 74
    0
  0
LTYPE
  5
47
330
5
100
AcDbSymbolTableRecord
100
AcDbLinetypeTableRecord
  2
CENTERTINY
 70
    0
  3
Center (.15x) ___ _ ___ _ ___ _ ___ _ ___ _ ___
 72
   65
 73
    4
 40
7.619999999999999
 49
4.7625
 74
    0
 49
-0.9525
 74
    0
 49
0.9525
 74
    0
 49
-0.9525
 74
    0
  0
LTYPE
  5
48
330
5
100
AcDbSymbolTableRecord
100
AcDbLinetypeTableRecord
  2
CENTER2
 70
    0
  3
Center (.5x) ___ _ ___ _ ___ _ ___ _ ___ _ ___
 72
   65
 73
    4
 40
28.575
 49
19.05
 74
    0
 49
-3.175
 74
    0
 49
3.175
 74
    0
 49
-3.175
 74
    0
  0
LTYPE
  5
49
330
5
100
AcDbSymbolTableRecord
100
AcDbLinetypeTableRecord
  2
CENTERX2
 70
    0
  3
Center (2x) ________  __  ________  __  _____
 72
   65
 73
    4
 40
101.6
 49
63.5
 74
    0
 49
-12.7
 74
    0
 49
12.7
 74
    0
 49
-12.7
 74
    0
  0
ENDTAB
  0
TABLE
  2
LAYER
  5
2
330
0
100
AcDbSymbolTable
 70
    1
  0
LAYER
  5
10
330
2
100
AcDbSymbolTableRecord
100
AcDbLayerTableRecord
  2
0
 70
    0
 62
    7
  6
CONTINUOUS
370
   -3
390
F
  0
LAYER
  5
4A
330
2
100
AcDbSymbolTableRecord
100
AcDbLayerTableRecord
  2
Bend
 70
    0
 62
    4
  6
CONTINUOUS
370
   -3
390
F
  0
LAYER
  5
4B
330
2
100
AcDbSymbolTableRecord
100
AcDbLayerTableRecord
  2
Cut
 70
    0
 62
    7
  6
CONTINUOUS
370
   -3
390
F
  0
LAYER
  5
4C
330
2
100
AcDbSymbolTableRecord
100
AcDbLayerTableRecord
  2
SCS_SLE
 70
    0
 62
    6
  6
CONTINUOUS
370
   -3
390
F
  0
ENDTAB
  0
TABLE
  2
STYLE
  5
3
330
0
100
AcDbSymbolTable
 70
    3
  0
STYLE
  5
4D
330
2
100
AcDbSymbolTableRecord
100
AcDbTextStyleTableRecord
  2
Standard
 70
    0
 40
0
 41
1
 50
0
 71
    0
 42
1
  3
txt
  4

  0
ENDTAB
  0
TABLE
  2
VIEW
  5
6
330
0
100
AcDbSymbolTable
 70
    0
  0
ENDTAB
  0
TABLE
  2
UCS
  5
7
330
0
100
AcDbSymbolTable
 70
    0
  0
ENDTAB
  0
TABLE
  2
APPID
  5
9
330
0
100
AcDbSymbolTable
 70
    1
  0
APPID
  5
12
330
9
100
AcDbSymbolTableRecord
100
AcDbRegAppTableRecord
  2
ACAD
 70
    0
  0
APPID
  5
4E
330
9
100
AcDbSymbolTableRecord
100
AcDbRegAppTableRecord
  2
LibreCad
 70
    0
  0
ENDTAB
  0
TABLE
  2
DIMSTYLE
  5
A
330
0
100
AcDbSymbolTable
 70
    1
100
AcDbDimStyleTable
 71
    1
  0
DIMSTYLE
105
4F
330
A
100
AcDbSymbolTableRecord
100
AcDbDimStyleTableRecord
  2
Standard
 70
    0
 40
0.03937008
 41
0.1
 42
0.025
 43
0.38
 44
0.05
 45
0
 46
0
 47
0
 48
0
 49
1
140
0.1
141
0.09
142
0
143
25.4
144
1
145
0
146
1
147
0.025
148
0
 71
    0
 72
    0
 73
    0
 74
    1
 75
    0
 76
    0
 77
    0
 78
    1
 79
    0
170
    0
171
    2
172
    0
173
    0
174
    0
175
    0
176
    0
177
    0
178
    0
179
    0
271
    2
272
    4
273
    2
274
    2
275
    0
276
    0
277
    2
278
    0
279
    0
280
    0
281
    0
282
    0
283
    1
284
    0
285
    0
286
    0
288
    0
289
    3
340
standard
341

371
   -2
372
   -2
  0
ENDTAB
  0
TABLE
  2
BLOCK_RECORD
  5
1
330
0
100
AcDbSymbolTable
 70
    2
  0
BLOCK_RECORD
  5
1F
330
1
100
AcDbSymbolTableRecord
100
AcDbBlockTableRecord
  2
*Model_Space
 70
    0
280
    1
281
    0
  0
BLOCK_RECORD
  5
1E
330
1
100
AcDbSymbolTableRecord
100
AcDbBlockTableRecord
  2
*Paper_Space
 70
    0
280
    1
281
    0
  0
ENDTAB
  0
ENDSEC
  0
SECTION
  2
BLOCKS
  0
BLOCK
  5
20
330
1F
100
AcDbEntity
  8
0
100
AcDbBlockBegin
  2
*Model_Space
 70
    0
 10
0
 20
0
 30
0
  3
*Model_Space
  1

  0
ENDBLK
  5
21
330
1F
100
AcDbEntity
  8
0
100
AcDbBlockEnd
  0
BLOCK
  5
1C
330
1B
100
AcDbEntity
  8
0
100
AcDbBlockBegin
  2
*Paper_Space
 70
    0
 10
0
 20
0
 30
0
  3
*Paper_Space
  1

  0
ENDBLK
  5
1D
330
1F
100
AcDbEntity
  8
0
100
AcDbBlockEnd
  0
ENDSEC
  0
SECTION
  2
ENTITIES
  0
LINE
  5
50
100
AcDbEntity
  8
Cut
  6
ByLayer
 62
  256
370
   -1
100
AcDbLine
 10
21.463
 20
2.159000000000002
 11
21.463
 21
3.175000000000001
  0
LINE
  5
51
100
AcDbEntity
  8
Cut
  6
ByLayer
 62
  256
370
   -1
100
AcDbLine
 10
21.463
 20
2.159000000000002
 11
0
 21
2.159000000000002
  0
LINE
  5
52
100
AcDbEntity
  8
Cut
  6
ByLayer
 62
  256
370
   -1
100
AcDbLine
 10
0
 20
2.159000000000002
 11
0
 21
0
  0
LINE
  5
53
100
AcDbEntity
  8
Cut
  6
ByLayer
 62
  256
370
   -1
100
AcDbLine
 10
22.479
 20
2.159000000000002
 11
22.479
 21
3.175000000000001
  0
LINE
  5
54
100
AcDbEntity
  8
Cut
  6
ByLayer
 62
  256
370
   -1
100
AcDbLine
 10
21.463
 20
25.4
 11
1.117599999999999
 21
25.4
  0
ARC
  5
55
100
AcDbEntity
  8
Cut
  6
ByLayer
 62
  256
370
   -1
100
AcDbCircle
 10
1.117599999999999
 20
24.2824
 40
1.1176
100
AcDbArc
 50
90
 51
180
  0
ARC
  5
56
100
AcDbEntity
  8
Cut
  6
ByLayer
 62
  256
370
   -1
100
AcDbCircle
 10
1.117599999999999
 20
4.2926
 40
1.1176
100
AcDbArc
 50
180
 51
-90
  0
LINE
  5
57
100
AcDbEntity
  8
Cut
  6
ByLayer
 62
  256
370
   -1
100
AcDbLine
 10
1.117599999999999
 20
3.175000000000001
 11
21.463
 21
3.175000000000001
  0
CIRCLE
  5
58
100
AcDbEntity
  8
Cut
  6
ByLayer
 62
  256
370
   -1
100
AcDbCircle
 10
2.959099999999999
 20
14.2875
 40
2.1082
  0
LINE
  5
59
100
AcDbEntity
  8
Cut
  6
ByLayer
 62
  256
370
   -1
100
AcDbLine
 10
22.479
 20
25.4
 11
22.479
 21
26.416
  0
LINE
  5
5A
100
AcDbEntity
  8
Cut
  6
ByLayer
 62
  256
370
   -1
100
AcDbLine
 10
21.463
 20
25.4
 11
21.463
 21
26.416
  0
LINE
  5
5B
100
AcDbEntity
  8
Cut
  6
ByLayer
 62
  256
370
   -1
100
AcDbLine
 10
21.463
 20
48.64100000000001
 11
1.117599999999999
 21
48.64100000000001
  0
ARC
  5
5C
100
AcDbEntity
  8
Cut
  6
ByLayer
 62
  256
370
   -1
100
AcDbCircle
 10
1.117599999999999
 20
47.5234
 40
1.1176
100
AcDbArc
 50
90
 51
180
  0
ARC
  5
5D
100
AcDbEntity
  8
Cut
  6
ByLayer
 62
  256
370
   -1
100
AcDbCircle
 10
1.117599999999999
 20
27.5336
 40
1.1176
100
AcDbArc
 50
180
 51
-90
  0
LINE
  5
5E
100
AcDbEntity
  8
Cut
  6
ByLayer
 62
  256
370
   -1
100
AcDbLine
 10
1.117599999999999
 20
26.416
 11
21.463
 21
26.416
  0
CIRCLE
  5
5F
100
AcDbEntity
  8
Cut
  6
ByLayer
 62
  256
370
   -1
100
AcDbCircle
 10
2.959099999999999
 20
37.5285
 40
2.1082
  0
LINE
  5
60
100
AcDbEntity
  8
Cut
  6
ByLayer
 62
  256
370
   -1
100
AcDbLine
 10
41.2067
 20
48.64100000000001
 11
21.463
 21
48.64100000000001
  0
LINE
  5
61
100
AcDbEntity
  8
Bend
  6
ByLayer
 62
  256
370
   -1
100
AcDbLine
 10
12.74238
 20
0
 11
12.74238
 21
48.64100000000001
  0
LINE
  5
62
100
AcDbEntity
  8
Cut
  6
ByLayer
 62
  256
370
   -1
100
AcDbLine
 10
0
 20
47.5234
 11
0
 21
44.4627
  0
LINE
  5
63
100
AcDbEntity
  8
Cut
  6
ByLayer
 62
  256
370
   -1
100
AcDbLine
 10
0
 20
30.5943
 11
0
 21
27.5336
  0
LINE
  5
64
100
AcDbEntity
  8
Cut
  6
ByLayer
 62
  256
370
   -1
100
AcDbLine
 10
0
 20
24.28240029415746
 11
0
 21
21.22170029415746
  0
LINE
  5
65
100
AcDbEntity
  8
Cut
  6
ByLayer
 62
  256
370
   -1
100
AcDbLine
 10
0
 20
7.35330029415746
 11
0
 21
4.292600294157459
  0
LINE
  5
66
100
AcDbEntity
  8
SCS_SLE
  6
ByLayer
 62
  256
370
   -1
100
AcDbLine
 10
-3.552713678800501e-15
 20
41.34084877601722
 11
0
 21
33.71615122398275
  0
ARC
  5
67
100
AcDbEntity
  8
Cut
  6
ByLayer
 62
  256
370
   -1
100
AcDbCircle
 10
2.9591
 20
37.5285
 40
4.826
100
AcDbArc
 50
127.8181912478243
 51
232.181808752176
  0
LINE
  5
68
100
AcDbEntity
  8
SCS_SLE
  6
ByLayer
 62
  256
370
   -1
100
AcDbLine
 10
0
 20
18.09984877601723
 11
0
 21
10.47515122398277
  0
ARC
  5
69
100
AcDbEntity
  8
Cut
  6
ByLayer
 62
  256
370
   -1
100
AcDbCircle
 10
2.9591
 20
14.2875
 40
4.826
100
AcDbArc
 50
127.8181912478244
 51
232.1818087521756
  0
LINE
  5
6A
100
AcDbEntity
  8
Cut
  6
ByLayer
 62
  256
370
   -1
100
AcDbLine
 10
0
 20
44.4627
 11
-3.552713678800501e-15
 21
41.34084877601722
  0
LINE
  5
6B
100
AcDbEntity
  8
Cut
  6
ByLayer
 62
  256
370
   -1
100
AcDbLine
 10
0
 20
33.71615122398275
 11
0
 21
30.5943
  0
LINE
  5
6C
100
AcDbEntity
  8
Cut
  6
ByLayer
 62
  256
370
   -1
100
AcDbLine
 10
0
 20
21.22170029415746
 11
0
 21
18.09984877601723
  0
LINE
  5
6D
100
AcDbEntity
  8
Cut
  6
ByLayer
 62
  256
370
   -1
100
AcDbLine
 10
0
 20
10.47515122398277
 11
0
 21
7.35330029415746
  0
LINE
  5
6E
100
AcDbEntity
  8
SCS_SLE
  6
ByLayer
 62
  256
370
   -1
100
AcDbLine
 10
21.463
 20
26.416
 11
22.479
 21
26.416
  0
LINE
  5
6F
100
AcDbEntity
  8
SCS_SLE
  6
ByLayer
 62
  256
370
   -1
100
AcDbLine
 10
21.463
 20
25.4
 11
22.479
 21
25.4
  0
LINE
  5
70
100
AcDbEntity
  8
SCS_SLE
  6
ByLayer
 62
  256
370
   -1
100
AcDbLine
 10
21.463
 20
3.175000000000001
 11
22.479
 21
3.175000000000001
  0
LINE
  5
71
100
AcDbEntity
  8
SCS_SLE
  6
ByLayer
 62
  256
370
   -1
100
AcDbLine
 10
21.463
 20
2.159000000000002
 11
22.479
 21
2.159000000000002
  0
LINE
  5
72
100
AcDbEntity
  8
Cut
  6
ByLayer
 62
  256
370
   -1
100
AcDbLine
 10
41.148
 20
2.159000000000002
 11
41.148
 21
3.175000000000001
  0
LINE
  5
73
100
AcDbEntity
  8
Cut
  6
ByLayer
 62
  256
370
   -1
100
AcDbLine
 10
42.164
 20
2.159000000000002
 11
42.164
 21
3.175000000000001
  0
LINE
  5
74
100
AcDbEntity
  8
Cut
  6
ByLayer
 62
  256
370
   -1
100
AcDbLine
 10
51.57910000000001
 20
3.175000000000001
 11
42.17190000000001
 21
3.175000000000001
  0
ARC
  5
75
100
AcDbEntity
  8
Cut
  6
ByLayer
 62
  256
370
   -1
100
AcDbCircle
 10
51.57910000000001
 20
4.2926
 40
1.1176
100
AcDbArc
 50
-90
 51
0
  0
LINE
  5
76
100
AcDbEntity
  8
Cut
  6
ByLayer
 62
  256
370
   -1
100
AcDbLine
 10
52.69670000000001
 20
7.797800000000002
 11
52.69670000000001
 21
4.2926
  0
ARC
  5
77
100
AcDbEntity
  8
Cut
  6
ByLayer
 62
  256
370
   -1
100
AcDbCircle
 10
51.57910000000001
 20
7.797800000000002
 40
1.1176
100
AcDbArc
 50
0
 51
90
  0
LINE
  5
78
100
AcDbEntity
  8
Cut
  6
ByLayer
 62
  256
370
   -1
100
AcDbLine
 10
51.3759
 20
8.915400000000002
 11
51.57910000000001
 21
8.915400000000002
  0
LINE
  5
79
100
AcDbEntity
  8
Cut
  6
ByLayer
 62
  256
370
   -1
100
AcDbLine
 10
51.3759
 20
9.525000000000002
 11
51.3759
 21
8.915400000000002
  0
ARC
  5
7A
100
AcDbEntity
  8
Cut
  6
ByLayer
 62
  256
370
   -1
100
AcDbCircle
 10
46.32130000000001
 20
13.8176
 40
1.1176
100
AcDbArc
 50
180
 51
-90
  0
LINE
  5
7B
100
AcDbEntity
  8
Cut
  6
ByLayer
 62
  256
370
   -1
100
AcDbLine
 10
45.2037
 20
13.8176
 11
45.2037
 21
14.7574
  0
ARC
  5
7C
100
AcDbEntity
  8
Cut
  6
ByLayer
 62
  256
370
   -1
100
AcDbCircle
 10
46.32130000000001
 20
14.7574
 40
1.1176
100
AcDbArc
 50
90
 51
180
  0
LINE
  5
7D
100
AcDbEntity
  8
Cut
  6
ByLayer
 62
  256
370
   -1
100
AcDbLine
 10
51.3759
 20
19.05
 11
51.3759
 21
19.6596
  0
LINE
  5
7E
100
AcDbEntity
  8
Cut
  6
ByLayer
 62
  256
370
   -1
100
AcDbLine
 10
51.3759
 20
19.6596
 11
51.57910000000001
 21
19.6596
  0
ARC
  5
7F
100
AcDbEntity
  8
Cut
  6
ByLayer
 62
  256
370
   -1
100
AcDbCircle
 10
51.57910000000001
 20
20.7772
 40
1.1176
100
AcDbArc
 50
-90
 51
0
  0
LINE
  5
80
100
AcDbEntity
  8
Cut
  6
ByLayer
 62
  256
370
   -1
100
AcDbLine
 10
52.69670000000001
 20
20.7772
 11
52.69670000000001
 21
24.2824
  0
ARC
  5
81
100
AcDbEntity
  8
Cut
  6
ByLayer
 62
  256
370
   -1
100
AcDbCircle
 10
51.57910000000001
 20
24.2824
 40
1.1176
100
AcDbArc
 50
0
 51
90
  0
LINE
  5
82
100
AcDbEntity
  8
Cut
  6
ByLayer
 62
  256
370
   -1
100
AcDbLine
 10
51.57910000000001
 20
25.4
 11
42.17190000000001
 21
25.4
  0
LINE
  5
83
100
AcDbEntity
  8
Cut
  6
ByLayer
 62
  256
370
   -1
100
AcDbLine
 10
42.17190000000001
 20
25.4
 11
42.17190000000001
 21
26.416
  0
LINE
  5
84
100
AcDbEntity
  8
Cut
  6
ByLayer
 62
  256
370
   -1
100
AcDbLine
 10
41.1559
 20
25.4
 11
41.1559
 21
26.416
  0
LINE
  5
85
100
AcDbEntity
  8
Cut
  6
ByLayer
 62
  256
370
   -1
100
AcDbLine
 10
51.57910000000001
 20
26.416
 11
42.17190000000001
 21
26.416
  0
ARC
  5
86
100
AcDbEntity
  8
Cut
  6
ByLayer
 62
  256
370
   -1
100
AcDbCircle
 10
51.57910000000001
 20
27.5336
 40
1.1176
100
AcDbArc
 50
-90
 51
0
  0
LINE
  5
87
100
AcDbEntity
  8
Cut
  6
ByLayer
 62
  256
370
   -1
100
AcDbLine
 10
52.69670000000001
 20
31.0388
 11
52.69670000000001
 21
27.5336
  0
ARC
  5
88
100
AcDbEntity
  8
Cut
  6
ByLayer
 62
  256
370
   -1
100
AcDbCircle
 10
51.57910000000001
 20
31.0388
 40
1.1176
100
AcDbArc
 50
0
 51
90
  0
LINE
  5
89
100
AcDbEntity
  8
Cut
  6
ByLayer
 62
  256
370
   -1
100
AcDbLine
 10
51.3759
 20
32.1564
 11
51.57910000000001
 21
32.1564
  0
LINE
  5
8A
100
AcDbEntity
  8
Cut
  6
ByLayer
 62
  256
370
   -1
100
AcDbLine
 10
51.3759
 20
32.76600000000001
 11
51.3759
 21
32.1564
  0
ARC
  5
8B
100
AcDbEntity
  8
Cut
  6
ByLayer
 62
  256
370
   -1
100
AcDbCircle
 10
46.32130000000001
 20
37.0586
 40
1.1176
100
AcDbArc
 50
180
 51
-90
  0
LINE
  5
8C
100
AcDbEntity
  8
Cut
  6
ByLayer
 62
  256
370
   -1
100
AcDbLine
 10
45.2037
 20
37.0586
 11
45.2037
 21
37.9984
  0
ARC
  5
8D
100
AcDbEntity
  8
Cut
  6
ByLayer
 62
  256
370
   -1
100
AcDbCircle
 10
46.32130000000001
 20
37.9984
 40
1.1176
100
AcDbArc
 50
90
 51
180
  0
LINE
  5
8E
100
AcDbEntity
  8
Cut
  6
ByLayer
 62
  256
370
   -1
100
AcDbLine
 10
51.3759
 20
42.291
 11
51.3759
 21
42.9006
  0
LINE
  5
8F
100
AcDbEntity
  8
Cut
  6
ByLayer
 62
  256
370
   -1
100
AcDbLine
 10
51.3759
 20
42.9006
 11
51.57910000000001
 21
42.9006
  0
ARC
  5
90
100
AcDbEntity
  8
Cut
  6
ByLayer
 62
  256
370
   -1
100
AcDbCircle
 10
51.57910000000001
 20
44.0182
 40
1.1176
100
AcDbArc
 50
-90
 51
0
  0
LINE
  5
91
100
AcDbEntity
  8
Cut
  6
ByLayer
 62
  256
370
   -1
100
AcDbLine
 10
52.69670000000001
 20
44.0182
 11
52.69670000000001
 21
47.5234
  0
ARC
  5
92
100
AcDbEntity
  8
Cut
  6
ByLayer
 62
  256
370
   -1
100
AcDbCircle
 10
51.57910000000001
 20
47.5234
 40
1.1176
100
AcDbArc
 50
0
 51
90
  0
LINE
  5
93
100
AcDbEntity
  8
Bend
  6
ByLayer
 62
  256
370
   -1
100
AcDbLine
 10
52.6883
 20
42.291
 11
52.6883
 21
0
  0
LINE
  5
94
100
AcDbEntity
  8
Bend
  6
ByLayer
 62
  256
370
   -1
100
AcDbLine
 10
30.9373
 20
0
 11
30.9373
 21
48.64100000000001
  0
LINE
  5
95
100
AcDbEntity
  8
SCS_SLE
  6
ByLayer
 62
  256
370
   -1
100
AcDbLine
 10
41.1559
 20
26.416
 11
42.17190000000001
 21
26.416
  0
LINE
  5
96
100
AcDbEntity
  8
SCS_SLE
  6
ByLayer
 62
  256
370
   -1
100
AcDbLine
 10
41.1559
 20
25.4
 11
42.17190000000001
 21
25.4
  0
LINE
  5
97
100
AcDbEntity
  8
SCS_SLE
  6
ByLayer
 62
  256
370
   -1
100
AcDbLine
 10
41.148
 20
3.175000000000001
 11
42.17190000000001
 21
3.175000000000001
  0
LINE
  5
98
100
AcDbEntity
  8
SCS_SLE
  6
ByLayer
 62
  256
370
   -1
100
AcDbLine
 10
41.148
 20
2.159000000000002
 11
42.164
 21
2.159000000000002
  0
LINE
  5
99
100
AcDbEntity
  8
Cut
  6
ByLayer
 62
  256
370
   -1
100
AcDbLine
 10
70.6628
 20
2.159000000000002
 11
70.6628
 21
3.175000000000001
  0
LINE
  5
9A
100
AcDbEntity
  8
Cut
  6
ByLayer
 62
  256
370
   -1
100
AcDbLine
 10
93.92920000000001
 20
2.159000000000002
 11
93.92920000000001
 21
3.175000000000001
  0
LINE
  5
9B
100
AcDbEntity
  8
Cut
  6
ByLayer
 62
  256
370
   -1
100
AcDbLine
 10
93.92920000000001
 20
2.159000000000002
 11
71.6788
 21
2.159000000000002
  0
LINE
  5
9C
100
AcDbEntity
  8
Cut
  6
ByLayer
 62
  256
370
   -1
100
AcDbLine
 10
71.6788
 20
2.159000000000002
 11
71.6788
 21
3.175000000000001
  0
LINE
  5
9D
100
AcDbEntity
  8
Cut
  6
ByLayer
 62
  256
370
   -1
100
AcDbLine
 10
94.9452
 20
2.159000000000002
 11
94.9452
 21
3.175000000000001
  0
LINE
  5
9E
100
AcDbEntity
  8
Cut
  6
ByLayer
 62
  256
370
   -1
100
AcDbLine
 10
61.8325
 20
9.525000000000002
 11
61.8325
 21
8.915400000000002
  0
LINE
  5
9F
100
AcDbEntity
  8
Cut
  6
ByLayer
 62
  256
370
   -1
100
AcDbLine
 10
61.8325
 20
8.915400000000002
 11
61.62930000000001
 21
8.915400000000002
  0
ARC
  5
A0
100
AcDbEntity
  8
Cut
  6
ByLayer
 62
  256
370
   -1
100
AcDbCircle
 10
61.62930000000001
 20
7.797800000000002
 40
1.1176
100
AcDbArc
 50
90
 51
180
  0
LINE
  5
A1
100
AcDbEntity
  8
Cut
  6
ByLayer
 62
  256
370
   -1
100
AcDbLine
 10
60.5117
 20
4.2926
 11
60.5117
 21
7.797800000000002
  0
ARC
  5
A2
100
AcDbEntity
  8
Cut
  6
ByLayer
 62
  256
370
   -1
100
AcDbCircle
 10
61.62930000000001
 20
4.2926
 40
1.1176
100
AcDbArc
 50
180
 51
-90
  0
LINE
  5
A3
100
AcDbEntity
  8
Cut
  6
ByLayer
 62
  256
370
   -1
100
AcDbLine
 10
71.6885
 20
3.175000000000001
 11
79.51090000000002
 21
3.175000000000001
  0
ARC
  5
A4
100
AcDbEntity
  8
Cut
  6
ByLayer
 62
  256
370
   -1
100
AcDbCircle
 10
79.51090000000002
 20
4.2926
 40
1.1176
100
AcDbArc
 50
-90
 51
0
  0
LINE
  5
A5
100
AcDbEntity
  8
Cut
  6
ByLayer
 62
  256
370
   -1
100
AcDbLine
 10
80.6285
 20
8.427099999999999
 11
80.6285
 21
4.2926
  0
ARC
  5
A6
100
AcDbEntity
  8
Cut
  6
ByLayer
 62
  256
370
   -1
100
AcDbCircle
 10
79.51090000000002
 20
8.427099999999999
 40
1.1176
100
AcDbArc
 50
0
 51
45
  0
LINE
  5
A7
100
AcDbEntity
  8
Cut
  6
ByLayer
 62
  256
370
   -1
100
AcDbLine
 10
77.14580000000001
 20
12.3727
 11
80.30110000000002
 21
9.217300000000002
  0
ARC
  5
A8
100
AcDbEntity
  8
Cut
  6
ByLayer
 62
  256
370
   -1
100
AcDbCircle
 10
76.35550000000001
 20
11.5824
 40
1.1176
100
AcDbArc
 50
45
 51
90
  0
ARC
  5
A9
100
AcDbEntity
  8
Cut
  6
ByLayer
 62
  256
370
   -1
100
AcDbCircle
 10
89.0359
 20
14.7574
 40
1.1176
100
AcDbArc
 50
0
 51
90
  0
LINE
  5
AA
100
AcDbEntity
  8
Cut
  6
ByLayer
 62
  256
370
   -1
100
AcDbLine
 10
90.15350000000001
 20
14.7574
 11
90.15350000000001
 21
4.2926
  0
ARC
  5
AB
100
AcDbEntity
  8
Cut
  6
ByLayer
 62
  256
370
   -1
100
AcDbCircle
 10
91.27110000000002
 20
4.2926
 40
1.1176
100
AcDbArc
 50
180
 51
-90
  0
LINE
  5
AC
100
AcDbEntity
  8
Cut
  6
ByLayer
 62
  256
370
   -1
100
AcDbLine
 10
91.27110000000002
 20
3.175000000000001
 11
93.92920000000001
 21
3.175000000000001
  0
LINE
  5
AD
100
AcDbEntity
  8
Cut
  6
ByLayer
 62
  256
370
   -1
100
AcDbLine
 10
94.9452
 20
3.175000000000001
 11
100.5167
 21
3.175000000000001
  0
ARC
  5
AE
100
AcDbEntity
  8
Cut
  6
ByLayer
 62
  256
370
   -1
100
AcDbCircle
 10
100.5167
 20
4.2926
 40
1.1176
100
AcDbArc
 50
-90
 51
-1.82136e-13
  0
LINE
  5
AF
100
AcDbEntity
  8
Cut
  6
ByLayer
 62
  256
370
   -1
100
AcDbLine
 10
101.6343
 20
4.2926
 11
101.6343
 21
6.3246
  0
ARC
  5
B0
100
AcDbEntity
  8
Cut
  6
ByLayer
 62
  256
370
   -1
100
AcDbCircle
 10
100.5167
 20
6.3246
 40
1.1176
100
AcDbArc
 50
0
 51
90
  0
LINE
  5
B1
100
AcDbEntity
  8
Cut
  6
ByLayer
 62
  256
370
   -1
100
AcDbLine
 10
100.5167
 20
7.4422
 11
100.3135
 21
7.4422
  0
LINE
  5
B2
100
AcDbEntity
  8
Cut
  6
ByLayer
 62
  256
370
   -1
100
AcDbLine
 10
100.3135
 20
8.0518
 11
100.3135
 21
7.4422
  0
LINE
  5
B3
100
AcDbEntity
  8
Cut
  6
ByLayer
 62
  256
370
   -1
100
AcDbLine
 10
100.3135
 20
20.5232
 11
100.3135
 21
21.1328
  0
LINE
  5
B4
100
AcDbEntity
  8
Cut
  6
ByLayer
 62
  256
370
   -1
100
AcDbLine
 10
100.3135
 20
21.1328
 11
100.5167
 21
21.1328
  0
ARC
  5
B5
100
AcDbEntity
  8
Cut
  6
ByLayer
 62
  256
370
   -1
100
AcDbCircle
 10
100.5167
 20
22.2504
 40
1.1176
100
AcDbArc
 50
-90
 51
0
  0
LINE
  5
B6
100
AcDbEntity
  8
Cut
  6
ByLayer
 62
  256
370
   -1
100
AcDbLine
 10
101.6343
 20
22.2504
 11
101.6343
 21
24.2824
  0
ARC
  5
B7
100
AcDbEntity
  8
Cut
  6
ByLayer
 62
  256
370
   -1
100
AcDbCircle
 10
100.5167
 20
24.2824
 40
1.1176
100
AcDbArc
 50
0
 51
90
  0
LINE
  5
B8
100
AcDbEntity
  8
Cut
  6
ByLayer
 62
  256
370
   -1
100
AcDbLine
 10
94.9452
 20
25.4
 11
100.5167
 21
25.4
  0
LINE
  5
B9
100
AcDbEntity
  8
Cut
  6
ByLayer
 62
  256
370
   -1
100
AcDbLine
 10
61.62930000000001
 20
25.4
 11
70.67250000000001
 21
25.4
  0
ARC
  5
BA
100
AcDbEntity
  8
Cut
  6
ByLayer
 62
  256
370
   -1
100
AcDbCircle
 10
61.62930000000001
 20
24.2824
 40
1.1176
100
AcDbArc
 50
90
 51
180
  0
LINE
  5
BB
100
AcDbEntity
  8
Cut
  6
ByLayer
 62
  256
370
   -1
100
AcDbLine
 10
60.5117
 20
20.7772
 11
60.5117
 21
24.2824
  0
ARC
  5
BC
100
AcDbEntity
  8
Cut
  6
ByLayer
 62
  256
370
   -1
100
AcDbCircle
 10
61.62930000000001
 20
20.7772
 40
1.1176
100
AcDbArc
 50
180
 51
-90
  0
LINE
  5
BD
100
AcDbEntity
  8
Cut
  6
ByLayer
 62
  256
370
   -1
100
AcDbLine
 10
61.8325
 20
19.6596
 11
61.62930000000001
 21
19.6596
  0
LINE
  5
BE
100
AcDbEntity
  8
Cut
  6
ByLayer
 62
  256
370
   -1
100
AcDbLine
 10
61.8325
 20
19.6596
 11
61.8325
 21
19.05
  0
LINE
  5
BF
100
AcDbEntity
  8
Cut
  6
ByLayer
 62
  256
370
   -1
100
AcDbLine
 10
71.6885
 20
25.4
 11
93.92920000000001
 21
25.4
  0
LINE
  5
C0
100
AcDbEntity
  8
Cut
  6
ByLayer
 62
  256
370
   -1
100
AcDbLine
 10
71.6885
 20
25.4
 11
71.6885
 21
26.416
  0
LINE
  5
C1
100
AcDbEntity
  8
Cut
  6
ByLayer
 62
  256
370
   -1
100
AcDbLine
 10
70.67250000000001
 20
25.4
 11
70.67250000000001
 21
26.416
  0
LINE
  5
C2
100
AcDbEntity
  8
Cut
  6
ByLayer
 62
  256
370
   -1
100
AcDbLine
 10
94.9452
 20
25.4
 11
94.9452
 21
26.416
  0
LINE
  5
C3
100
AcDbEntity
  8
Cut
  6
ByLayer
 62
  256
370
   -1
100
AcDbLine
 10
93.92920000000001
 20
25.4
 11
93.92920000000001
 21
26.416
  0
LINE
  5
C4
100
AcDbEntity
  8
Cut
  6
ByLayer
 62
  256
370
   -1
100
AcDbLine
 10
61.8325
 20
32.76600000000001
 11
61.8325
 21
32.1564
  0
LINE
  5
C5
100
AcDbEntity
  8
Cut
  6
ByLayer
 62
  256
370
   -1
100
AcDbLine
 10
61.8325
 20
32.1564
 11
61.62930000000001
 21
32.1564
  0
ARC
  5
C6
100
AcDbEntity
  8
Cut
  6
ByLayer
 62
  256
370
   -1
100
AcDbCircle
 10
61.62930000000001
 20
31.0388
 40
1.1176
100
AcDbArc
 50
90
 51
180
  0
LINE
  5
C7
100
AcDbEntity
  8
Cut
  6
ByLayer
 62
  256
370
   -1
100
AcDbLine
 10
60.5117
 20
27.5336
 11
60.5117
 21
31.0388
  0
ARC
  5
C8
100
AcDbEntity
  8
Cut
  6
ByLayer
 62
  256
370
   -1
100
AcDbCircle
 10
61.62930000000001
 20
27.5336
 40
1.1176
100
AcDbArc
 50
180
 51
-90
  0
LINE
  5
C9
100
AcDbEntity
  8
Cut
  6
ByLayer
 62
  256
370
   -1
100
AcDbLine
 10
61.62930000000001
 20
26.416
 11
70.67250000000001
 21
26.416
  0
LINE
  5
CA
100
AcDbEntity
  8
Cut
  6
ByLayer
 62
  256
370
   -1
100
AcDbLine
 10
71.6885
 20
26.416
 11
79.51090000000002
 21
26.416
  0
ARC
  5
CB
100
AcDbEntity
  8
Cut
  6
ByLayer
 62
  256
370
   -1
100
AcDbCircle
 10
79.51090000000002
 20
27.5336
 40
1.1176
100
AcDbArc
 50
-90
 51
0
  0
LINE
  5
CC
100
AcDbEntity
  8
Cut
  6
ByLayer
 62
  256
370
   -1
100
AcDbLine
 10
80.6285
 20
31.6681
 11
80.6285
 21
27.5336
  0
ARC
  5
CD
100
AcDbEntity
  8
Cut
  6
ByLayer
 62
  256
370
   -1
100
AcDbCircle
 10
79.51090000000002
 20
31.6681
 40
1.1176
100
AcDbArc
 50
0
 51
45
  0
LINE
  5
CE
100
AcDbEntity
  8
Cut
  6
ByLayer
 62
  256
370
   -1
100
AcDbLine
 10
77.14580000000001
 20
35.6137
 11
80.30110000000002
 21
32.4583
  0
ARC
  5
CF
100
AcDbEntity
  8
Cut
  6
ByLayer
 62
  256
370
   -1
100
AcDbCircle
 10
76.35550000000001
 20
34.8234
 40
1.1176
100
AcDbArc
 50
45
 51
90
  0
ARC
  5
D0
100
AcDbEntity
  8
Cut
  6
ByLayer
 62
  256
370
   -1
100
AcDbCircle
 10
89.0359
 20
37.9984
 40
1.1176
100
AcDbArc
 50
0
 51
90
  0
LINE
  5
D1
100
AcDbEntity
  8
Cut
  6
ByLayer
 62
  256
370
   -1
100
AcDbLine
 10
90.15350000000001
 20
37.9984
 11
90.15350000000001
 21
27.5336
  0
ARC
  5
D2
100
AcDbEntity
  8
Cut
  6
ByLayer
 62
  256
370
   -1
100
AcDbCircle
 10
91.27110000000002
 20
27.5336
 40
1.1176
100
AcDbArc
 50
180
 51
-90
  0
LINE
  5
D3
100
AcDbEntity
  8
Cut
  6
ByLayer
 62
  256
370
   -1
100
AcDbLine
 10
91.27110000000002
 20
26.416
 11
93.92920000000001
 21
26.416
  0
LINE
  5
D4
100
AcDbEntity
  8
Cut
  6
ByLayer
 62
  256
370
   -1
100
AcDbLine
 10
94.9452
 20
26.416
 11
100.5167
 21
26.416
  0
ARC
  5
D5
100
AcDbEntity
  8
Cut
  6
ByLayer
 62
  256
370
   -1
100
AcDbCircle
 10
100.5167
 20
27.5336
 40
1.1176
100
AcDbArc
 50
-90
 51
-1.82136e-13
  0
LINE
  5
D6
100
AcDbEntity
  8
Cut
  6
ByLayer
 62
  256
370
   -1
100
AcDbLine
 10
101.6343
 20
27.5336
 11
101.6343
 21
29.5656
  0
ARC
  5
D7
100
AcDbEntity
  8
Cut
  6
ByLayer
 62
  256
370
   -1
100
AcDbCircle
 10
100.5167
 20
29.5656
 40
1.1176
100
AcDbArc
 50
0
 51
90
  0
LINE
  5
D8
100
AcDbEntity
  8
Cut
  6
ByLayer
 62
  256
370
   -1
100
AcDbLine
 10
100.5167
 20
30.6832
 11
100.3135
 21
30.6832
  0
LINE
  5
D9
100
AcDbEntity
  8
Cut
  6
ByLayer
 62
  256
370
   -1
100
AcDbLine
 10
100.3135
 20
31.2928
 11
100.3135
 21
30.6832
  0
LINE
  5
DA
100
AcDbEntity
  8
Cut
  6
ByLayer
 62
  256
370
   -1
100
AcDbLine
 10
100.3135
 20
43.7642
 11
100.3135
 21
44.3738
  0
LINE
  5
DB
100
AcDbEntity
  8
Cut
  6
ByLayer
 62
  256
370
   -1
100
AcDbLine
 10
100.3135
 20
44.3738
 11
100.5167
 21
44.3738
  0
ARC
  5
DC
100
AcDbEntity
  8
Cut
  6
ByLayer
 62
  256
370
   -1
100
AcDbCircle
 10
100.5167
 20
45.4914
 40
1.1176
100
AcDbArc
 50
-90
 51
0
  0
LINE
  5
DD
100
AcDbEntity
  8
Cut
  6
ByLayer
 62
  256
370
   -1
100
AcDbLine
 10
101.6343
 20
45.4914
 11
101.6343
 21
47.5234
  0
ARC
  5
DE
100
AcDbEntity
  8
Cut
  6
ByLayer
 62
  256
370
   -1
100
AcDbCircle
 10
100.5167
 20
47.5234
 40
1.1176
100
AcDbArc
 50
0
 51
90
  0
LINE
  5
DF
100
AcDbEntity
  8
Cut
  6
ByLayer
 62
  256
370
   -1
100
AcDbLine
 10
61.62930000000001
 20
48.64100000000001
 11
70.67250000000001
 21
48.64100000000001
  0
ARC
  5
E0
100
AcDbEntity
  8
Cut
  6
ByLayer
 62
  256
370
   -1
100
AcDbCircle
 10
61.62930000000001
 20
47.5234
 40
1.1176
100
AcDbArc
 50
90
 51
180
  0
LINE
  5
E1
100
AcDbEntity
  8
Cut
  6
ByLayer
 62
  256
370
   -1
100
AcDbLine
 10
60.5117
 20
44.0182
 11
60.5117
 21
47.5234
  0
ARC
  5
E2
100
AcDbEntity
  8
Cut
  6
ByLayer
 62
  256
370
   -1
100
AcDbCircle
 10
61.62930000000001
 20
44.0182
 40
1.1176
100
AcDbArc
 50
180
 51
-90
  0
LINE
  5
E3
100
AcDbEntity
  8
Cut
  6
ByLayer
 62
  256
370
   -1
100
AcDbLine
 10
61.8325
 20
42.9006
 11
61.62930000000001
 21
42.9006
  0
LINE
  5
E4
100
AcDbEntity
  8
Cut
  6
ByLayer
 62
  256
370
   -1
100
AcDbLine
 10
61.8325
 20
42.9006
 11
61.8325
 21
42.291
  0
LINE
  5
E5
100
AcDbEntity
  8
Cut
  6
ByLayer
 62
  256
370
   -1
100
AcDbLine
 10
93.92920000000001
 20
48.64100000000001
 11
100.5167
 21
48.64100000000001
  0
LINE
  5
E6
100
AcDbEntity
  8
Cut
  6
ByLayer
 62
  256
370
   -1
100
AcDbLine
 10
70.67250000000001
 20
48.64100000000001
 11
93.92920000000001
 21
48.64100000000001
  0
LINE
  5
E7
100
AcDbEntity
  8
Bend
  6
ByLayer
 62
  256
370
   -1
100
AcDbLine
 10
60.52010000000001
 20
0
 11
60.52010000000001
 21
42.291
  0
LINE
  5
E8
100
AcDbEntity
  8
Bend
  6
ByLayer
 62
  256
370
   -1
100
AcDbLine
 10
101.6258
 20
0
 11
101.6258
 21
43.7642
  0
LINE
  5
E9
100
AcDbEntity
  8
SCS_SLE
  6
ByLayer
 62
  256
370
   -1
100
AcDbLine
 10
70.67250000000001
 20
26.416
 11
71.6885
 21
26.416
  0
LINE
  5
EA
100
AcDbEntity
  8
SCS_SLE
  6
ByLayer
 62
  256
370
   -1
100
AcDbLine
 10
70.67250000000001
 20
25.4
 11
71.6885
 21
25.4
  0
LINE
  5
EB
100
AcDbEntity
  8
SCS_SLE
  6
ByLayer
 62
  256
370
   -1
100
AcDbLine
 10
70.67250000000001
 20
3.175000000000001
 11
71.6885
 21
3.175000000000001
  0
LINE
  5
EC
100
AcDbEntity
  8
SCS_SLE
  6
ByLayer
 62
  256
370
   -1
100
AcDbLine
 10
70.6628
 20
2.159000000000002
 11
71.6788
 21
2.159000000000002
  0
LINE
  5
ED
100
AcDbEntity
  8
SCS_SLE
  6
ByLayer
 62
  256
370
   -1
100
AcDbLine
 10
93.92920000000001
 20
26.416
 11
94.9452
 21
26.416
  0
LINE
  5
EE
100
AcDbEntity
  8
SCS_SLE
  6
ByLayer
 62
  256
370
   -1
100
AcDbLine
 10
93.92920000000001
 20
25.4
 11
94.9452
 21
25.4
  0
LINE
  5
EF
100
AcDbEntity
  8
SCS_SLE
  6
ByLayer
 62
  256
370
   -1
100
AcDbLine
 10
93.92920000000001
 20
3.175000000000001
 11
94.9452
 21
3.175000000000001
  0
LINE
  5
F0
100
AcDbEntity
  8
SCS_SLE
  6
ByLayer
 62
  256
370
   -1
100
AcDbLine
 10
93.92920000000001
 20
2.159000000000002
 11
94.9452
 21
2.159000000000002
  0
LINE
  5
F1
100
AcDbEntity
  8
Cut
  6
ByLayer
 62
  256
370
   -1
100
AcDbLine
 10
51.57910000000001
 20
48.64100000000001
 11
41.2067
 21
48.64100000000001
  0
LINE
  5
F2
100
AcDbEntity
  8
Cut
  6
ByLayer
 62
  256
370
   -1
100
AcDbLine
 10
41.1559
 20
25.4
 11
22.479
 21
25.4
  0
LINE
  5
F3
100
AcDbEntity
  8
Cut
  6
ByLayer
 62
  256
370
   -1
100
AcDbLine
 10
41.1559
 20
26.416
 11
22.479
 21
26.416
  0
LINE
  5
F4
100
AcDbEntity
  8
Cut
  6
ByLayer
 62
  256
370
   -1
100
AcDbLine
 10
41.148
 20
3.175000000000001
 11
22.479
 21
3.175000000000001
  0
LINE
  5
F5
100
AcDbEntity
  8
Cut
  6
ByLayer
 62
  256
370
   -1
100
AcDbLine
 10
41.148
 20
2.159000000000002
 11
22.479
 21
2.159000000000002
  0
LINE
  5
F6
100
AcDbEntity
  8
Cut
  6
ByLayer
 62
  256
370
   -1
100
AcDbLine
 10
70.6628
 20
2.159000000000002
 11
42.164
 21
2.159000000000002
  0
LINE
  5
F7
100
AcDbEntity
  8
Cut
  6
ByLayer
 62
  256
370
   -1
100
AcDbLine
 10
61.8325
 20
9.525000000000002
 11
51.3759
 21
9.525000000000002
  0
LINE
  5
F8
100
AcDbEntity
  8
Cut
  6
ByLayer
 62
  256
370
   -1
100
AcDbLine
 10
61.8325
 20
19.05
 11
51.3759
 21
19.05
  0
LINE
  5
F9
100
AcDbEntity
  8
Cut
  6
ByLayer
 62
  256
370
   -1
100
AcDbLine
 10
61.8325
 20
42.291
 11
51.3759
 21
42.291
  0
LINE
  5
FA
100
AcDbEntity
  8
Cut
  6
ByLayer
 62
  256
370
   -1
100
AcDbLine
 10
61.8325
 20
32.76600000000001
 11
51.3759
 21
32.76600000000001
  0
LINE
  5
FB
100
AcDbEntity
  8
Cut
  6
ByLayer
 62
  256
370
   -1
100
AcDbLine
 10
76.35550000000001
 20
35.941
 11
46.32130000000001
 21
35.941
  0
LINE
  5
FC
100
AcDbEntity
  8
Cut
  6
ByLayer
 62
  256
370
   -1
100
AcDbLine
 10
46.32130000000001
 20
39.116
 11
89.0359
 21
39.116
  0
LINE
  5
FD
100
AcDbEntity
  8
Cut
  6
ByLayer
 62
  256
370
   -1
100
AcDbLine
 10
46.32130000000001
 20
15.875
 11
89.0359
 21
15.875
  0
LINE
  5
FE
100
AcDbEntity
  8
Cut
  6
ByLayer
 62
  256
370
   -1
100
AcDbLine
 10
76.35550000000001
 20
12.7
 11
46.32130000000001
 21
12.7
  0
LINE
  5
FF
100
AcDbEntity
  8
Cut
  6
ByLayer
 62
  256
370
   -1
100
AcDbLine
 10
61.62930000000001
 20
3.175000000000001
 11
70.6628
 21
3.175000000000001
  0
LINE
  5
100
100
AcDbEntity
  8
Cut
  6
ByLayer
 62
  256
370
   -1
100
AcDbLine
 10
138.5834
 20
0
 11
138.5834
 21
2.159000000000002
  0
LINE
  5
101
100
AcDbEntity
  8
Cut
  6
ByLayer
 62
  256
370
   -1
100
AcDbLine
 10
138.5834
 20
2.159000000000002
 11
119.9644
 21
2.159000000000002
  0
LINE
  5
102
100
AcDbEntity
  8
Cut
  6
ByLayer
 62
  256
370
   -1
100
AcDbLine
 10
119.9644
 20
2.159000000000002
 11
119.9644
 21
3.175000000000001
  0
LINE
  5
103
100
AcDbEntity
  8
Cut
  6
ByLayer
 62
  256
370
   -1
100
AcDbLine
 10
118.9484
 20
2.159000000000002
 11
118.9484
 21
3.175000000000001
  0
LINE
  5
104
100
AcDbEntity
  8
SCS_SLE
  6
ByLayer
 62
  256
370
   -1
100
AcDbLine
 10
116.2754
 20
11.2254
 11
116.9254
 21
11.2254
  0
LINE
  5
105
100
AcDbEntity
  8
SCS_SLE
  6
ByLayer
 62
  256
370
   -1
100
AcDbLine
 10
116.2754
 20
6.790300000000002
 11
116.2754
 21
11.2254
  0
LINE
  5
106
100
AcDbEntity
  8
SCS_SLE
  6
ByLayer
 62
  256
370
   -1
100
AcDbLine
 10
116.9254
 20
6.790300000000002
 11
116.2754
 21
6.790300000000002
  0
LINE
  5
107
100
AcDbEntity
  8
SCS_SLE
  6
ByLayer
 62
  256
370
   -1
100
AcDbLine
 10
116.9254
 20
8.632000000000001
 11
116.9254
 21
6.790300000000002
  0
LINE
  5
108
100
AcDbEntity
  8
SCS_SLE
  6
ByLayer
 62
  256
370
   -1
100
AcDbLine
 10
121.7364
 20
8.632000000000001
 11
116.9254
 21
8.632000000000001
  0
LINE
  5
109
100
AcDbEntity
  8
SCS_SLE
  6
ByLayer
 62
  256
370
   -1
100
AcDbLine
 10
121.7364
 20
9.383600000000001
 11
121.7364
 21
8.632000000000001
  0
LINE
  5
10A
100
AcDbEntity
  8
SCS_SLE
  6
ByLayer
 62
  256
370
   -1
100
AcDbLine
 10
116.9254
 20
9.383600000000001
 11
121.7364
 21
9.383600000000001
  0
LINE
  5
10B
100
AcDbEntity
  8
SCS_SLE
  6
ByLayer
 62
  256
370
   -1
100
AcDbLine
 10
116.9254
 20
11.2254
 11
116.9254
 21
9.383600000000001
  0
SPLINE
  5
10C
100
AcDbEntity
  8
SCS_SLE
  6
ByLayer
 62
  256
370
   -1
100
AcDbSpline
210
0
220
0
230
0
 70
    8
 71
    2
 72
    6
 73
    3
 74
    0
 42
1e-07
 43
1e-07
 40
0
 40
0
 40
0
 40
1
 40
1
 40
1
 10
116.1324
 20
14.2582
 30
0
 10
116.1324
 20
15.7056
 30
0
 10
117.0574
 20
16.4014
 30
0
  0
SPLINE
  5
10D
100
AcDbEntity
  8
SCS_SLE
  6
ByLayer
 62
  256
370
   -1
100
AcDbSpline
210
0
220
0
230
0
 70
    8
 71
    2
 72
    6
 73
    3
 74
    0
 42
1e-07
 43
1e-07
 40
0
 40
0
 40
0
 40
1
 40
1
 40
1
 10
117.1394
 20
12.1672
 30
0
 10
116.1324
 20
12.8741
 30
0
 10
116.1324
 20
14.2582
 30
0
  0
SPLINE
  5
10E
100
AcDbEntity
  8
SCS_SLE
  6
ByLayer
 62
  256
370
   -1
100
AcDbSpline
210
0
220
0
230
0
 70
    8
 71
    2
 72
    6
 73
    3
 74
    0
 42
1e-07
 43
1e-07
 40
0
 40
0
 40
0
 40
1
 40
1
 40
1
 10
119.0274
 20
11.6165
 30
0
 10
117.9244
 20
11.6165
 30
0
 10
117.1394
 20
12.1672
 30
0
  0
SPLINE
  5
10F
100
AcDbEntity
  8
SCS_SLE
  6
ByLayer
 62
  256
370
   -1
100
AcDbSpline
210
0
220
0
230
0
 70
    8
 71
    2
 72
    6
 73
    3
 74
    0
 42
1e-07
 43
1e-07
 40
0
 40
0
 40
0
 40
1
 40
1
 40
1
 10
121.0494
 20
12.2602
 30
0
 10
120.2494
 20
11.6165
 30
0
 10
119.0274
 20
11.6165
 30
0
  0
SPLINE
  5
110
100
AcDbEntity
  8
SCS_SLE
  6
ByLayer
 62
  256
370
   -1
100
AcDbSpline
210
0
220
0
230
0
 70
    8
 71
    2
 72
    6
 73
    3
 74
    0
 42
1e-07
 43
1e-07
 40
0
 40
0
 40
0
 40
1
 40
1
 40
1
 10
121.8784
 20
14.2433
 30
0
 10
121.8784
 20
12.982
 30
0
 10
121.0494
 20
12.2602
 30
0
  0
SPLINE
  5
111
100
AcDbEntity
  8
SCS_SLE
  6
ByLayer
 62
  256
370
   -1
100
AcDbSpline
210
0
220
0
230
0
 70
    8
 71
    2
 72
    6
 73
    3
 74
    0
 42
1e-07
 43
1e-07
 40
0
 40
0
 40
0
 40
1
 40
1
 40
1
 10
120.9304
 20
16.3232
 30
0
 10
121.8784
 20
15.594
 30
0
 10
121.8784
 20
14.2433
 30
0
  0
SPLINE
  5
112
100
AcDbEntity
  8
SCS_SLE
  6
ByLayer
 62
  256
370
   -1
100
AcDbSpline
210
0
220
0
230
0
 70
    8
 71
    2
 72
    6
 73
    3
 74
    0
 42
1e-07
 43
1e-07
 40
0
 40
0
 40
0
 40
1
 40
1
 40
1
 10
118.9054
 20
16.9446
 30
0
 10
120.1234
 20
16.9446
 30
0
 10
120.9304
 20
16.3232
 30
0
  0
SPLINE
  5
113
100
AcDbEntity
  8
SCS_SLE
  6
ByLayer
 62
  256
370
   -1
100
AcDbSpline
210
0
220
0
230
0
 70
    8
 71
    2
 72
    6
 73
    3
 74
    0
 42
1e-07
 43
1e-07
 40
0
 40
0
 40
0
 40
1
 40
1
 40
1
 10
117.0574
 20
16.4014
 30
0
 10
117.7804
 20
16.9446
 30
0
 10
118.9054
 20
16.9446
 30
0
  0
SPLINE
  5
114
100
AcDbEntity
  8
SCS_SLE
  6
ByLayer
 62
  256
370
   -1
100
AcDbSpline
210
0
220
0
230
0
 70
    8
 71
    2
 72
    6
 73
    3
 74
    0
 42
1e-07
 43
1e-07
 40
0
 40
0
 40
0
 40
1
 40
1
 40
1
 10
121.2284
 20
14.3326
 30
0
 10
121.2284
 20
15.3112
 30
0
 10
120.5284
 20
15.7482
 30
0
  0
SPLINE
  5
115
100
AcDbEntity
  8
SCS_SLE
  6
ByLayer
 62
  256
370
   -1
100
AcDbSpline
210
0
220
0
230
0
 70
    8
 71
    2
 72
    6
 73
    3
 74
    0
 42
1e-07
 43
1e-07
 40
0
 40
0
 40
0
 40
1
 40
1
 40
1
 10
120.6064
 20
12.8424
 30
0
 10
121.2284
 20
13.302
 30
0
 10
121.2284
 20
14.3326
 30
0
  0
SPLINE
  5
116
100
AcDbEntity
  8
SCS_SLE
  6
ByLayer
 62
  256
370
   -1
100
AcDbSpline
210
0
220
0
230
0
 70
    8
 71
    2
 72
    6
 73
    3
 74
    0
 42
1e-07
 43
1e-07
 40
0
 40
0
 40
0
 40
1
 40
1
 40
1
 10
119.0784
 20
12.383
 30
0
 10
119.9844
 20
12.383
 30
0
 10
120.6064
 20
12.8424
 30
0
  0
SPLINE
  5
117
100
AcDbEntity
  8
SCS_SLE
  6
ByLayer
 62
  256
370
   -1
100
AcDbSpline
210
0
220
0
230
0
 70
    8
 71
    2
 72
    6
 73
    3
 74
    0
 42
1e-07
 43
1e-07
 40
0
 40
0
 40
0
 40
1
 40
1
 40
1
 10
117.3644
 20
12.9188
 30
0
 10
117.9454
 20
12.383
 30
0
 10
119.0784
 20
12.383
 30
0
  0
SPLINE
  5
118
100
AcDbEntity
  8
SCS_SLE
  6
ByLayer
 62
  256
370
   -1
100
AcDbSpline
210
0
220
0
230
0
 70
    8
 71
    2
 72
    6
 73
    3
 74
    0
 42
1e-07
 43
1e-07
 40
0
 40
0
 40
0
 40
1
 40
1
 40
1
 10
116.7834
 20
14.3029
 30
0
 10
116.7834
 20
13.4546
 30
0
 10
117.3644
 20
12.9188
 30
0
  0
SPLINE
  5
119
100
AcDbEntity
  8
SCS_SLE
  6
ByLayer
 62
  256
370
   -1
100
AcDbSpline
210
0
220
0
230
0
 70
    8
 71
    2
 72
    6
 73
    3
 74
    0
 42
1e-07
 43
1e-07
 40
0
 40
0
 40
0
 40
1
 40
1
 40
1
 10
117.3694
 20
15.6813
 30
0
 10
116.7834
 20
15.1772
 30
0
 10
116.7834
 20
14.3029
 30
0
  0
SPLINE
  5
11A
100
AcDbEntity
  8
SCS_SLE
  6
ByLayer
 62
  256
370
   -1
100
AcDbSpline
210
0
220
0
230
0
 70
    8
 71
    2
 72
    6
 73
    3
 74
    0
 42
1e-07
 43
1e-07
 40
0
 40
0
 40
0
 40
1
 40
1
 40
1
 10
118.9184
 20
16.1856
 30
0
 10
117.9564
 20
16.1856
 30
0
 10
117.3694
 20
15.6813
 30
0
  0
SPLINE
  5
11B
100
AcDbEntity
  8
SCS_SLE
  6
ByLayer
 62
  256
370
   -1
100
AcDbSpline
210
0
220
0
230
0
 70
    8
 71
    2
 72
    6
 73
    3
 74
    0
 42
1e-07
 43
1e-07
 40
0
 40
0
 40
0
 40
1
 40
1
 40
1
 10
120.5284
 20
15.7482
 30
0
 10
119.8284
 20
16.1856
 30
0
 10
118.9184
 20
16.1856
 30
0
  0
LINE
  5
11C
100
AcDbEntity
  8
SCS_SLE
  6
ByLayer
 62
  256
370
   -1
100
AcDbLine
 10
116.2754
 20
17.89137
 11
116.2754
 21
20.35076
  0
LINE
  5
11D
100
AcDbEntity
  8
SCS_SLE
  6
ByLayer
 62
  256
370
   -1
100
AcDbLine
 10
121.7364
 20
17.89137
 11
116.2754
 21
17.89137
  0
LINE
  5
11E
100
AcDbEntity
  8
SCS_SLE
  6
ByLayer
 62
  256
370
   -1
100
AcDbLine
 10
121.7364
 20
18.63179
 11
121.7364
 21
17.89137
  0
LINE
  5
11F
100
AcDbEntity
  8
SCS_SLE
  6
ByLayer
 62
  256
370
   -1
100
AcDbLine
 10
119.4184
 20
18.63179
 11
121.7364
 21
18.63179
  0
LINE
  5
120
100
AcDbEntity
  8
SCS_SLE
  6
ByLayer
 62
  256
370
   -1
100
AcDbLine
 10
119.4184
 20
20.35076
 11
119.4184
 21
18.63179
  0
SPLINE
  5
121
100
AcDbEntity
  8
SCS_SLE
  6
ByLayer
 62
  256
370
   -1
100
AcDbSpline
210
0
220
0
230
0
 70
    8
 71
    2
 72
    6
 73
    3
 74
    0
 42
1e-07
 43
1e-07
 40
0
 40
0
 40
0
 40
1
 40
1
 40
1
 10
118.9454
 20
21.57487
 30
0
 10
119.4184
 20
21.17675
 30
0
 10
119.4184
 20
20.35076
 30
0
  0
SPLINE
  5
122
100
AcDbEntity
  8
SCS_SLE
  6
ByLayer
 62
  256
370
   -1
100
AcDbSpline
210
0
220
0
230
0
 70
    8
 71
    2
 72
    6
 73
    3
 74
    0
 42
1e-07
 43
1e-07
 40
0
 40
0
 40
0
 40
1
 40
1
 40
1
 10
117.8354
 20
21.97298
 30
0
 10
118.4734
 20
21.97298
 30
0
 10
118.9454
 20
21.57487
 30
0
  0
SPLINE
  5
123
100
AcDbEntity
  8
SCS_SLE
  6
ByLayer
 62
  256
370
   -1
100
AcDbSpline
210
0
220
0
230
0
 70
    8
 71
    2
 72
    6
 73
    3
 74
    0
 42
1e-07
 43
1e-07
 40
0
 40
0
 40
0
 40
1
 40
1
 40
1
 10
116.6844
 20
21.5265
 30
0
 10
117.0944
 20
21.97298
 30
0
 10
117.8354
 20
21.97298
 30
0
  0
SPLINE
  5
124
100
AcDbEntity
  8
SCS_SLE
  6
ByLayer
 62
  256
370
   -1
100
AcDbSpline
210
0
220
0
230
0
 70
    8
 71
    2
 72
    6
 73
    3
 74
    0
 42
1e-07
 43
1e-07
 40
0
 40
0
 40
0
 40
1
 40
1
 40
1
 10
116.2754
 20
20.35076
 30
0
 10
116.2754
 20
21.08002
 30
0
 10
116.6844
 20
21.5265
 30
0
  0
SPLINE
  5
125
100
AcDbEntity
  8
SCS_SLE
  6
ByLayer
 62
  256
370
   -1
100
AcDbSpline
210
0
220
0
230
0
 70
    8
 71
    2
 72
    6
 73
    3
 74
    0
 42
1e-07
 43
1e-07
 40
0
 40
0
 40
0
 40
1
 40
1
 40
1
 10
117.8494
 20
21.22512
 30
0
 10
117.2534
 20
21.22512
 30
0
 10
117.0404
 20
20.77864
 30
0
  0
SPLINE
  5
126
100
AcDbEntity
  8
SCS_SLE
  6
ByLayer
 62
  256
370
   -1
100
AcDbSpline
210
0
220
0
230
0
 70
    8
 71
    2
 72
    6
 73
    3
 74
    0
 42
1e-07
 43
1e-07
 40
0
 40
0
 40
0
 40
1
 40
1
 40
1
 10
118.5894
 20
20.91432
 30
0
 10
118.3794
 20
21.22512
 30
0
 10
117.8494
 20
21.22512
 30
0
  0
SPLINE
  5
127
100
AcDbEntity
  8
SCS_SLE
  6
ByLayer
 62
  256
370
   -1
100
AcDbSpline
210
0
220
0
230
0
 70
    8
 71
    2
 72
    6
 73
    3
 74
    0
 42
1e-07
 43
1e-07
 40
0
 40
0
 40
0
 40
1
 40
1
 40
1
 10
118.7994
 20
20.10519
 30
0
 10
118.7994
 20
20.60377
 30
0
 10
118.5894
 20
20.91432
 30
0
  0
LINE
  5
128
100
AcDbEntity
  8
SCS_SLE
  6
ByLayer
 62
  256
370
   -1
100
AcDbLine
 10
118.7994
 20
18.63179
 11
118.7994
 21
20.10519
  0
LINE
  5
129
100
AcDbEntity
  8
SCS_SLE
  6
ByLayer
 62
  256
370
   -1
100
AcDbLine
 10
116.9254
 20
18.63179
 11
118.7994
 21
18.63179
  0
LINE
  5
12A
100
AcDbEntity
  8
SCS_SLE
  6
ByLayer
 62
  256
370
   -1
100
AcDbLine
 10
116.9254
 20
20.10519
 11
116.9254
 21
18.63179
  0
SPLINE
  5
12B
100
AcDbEntity
  8
SCS_SLE
  6
ByLayer
 62
  256
370
   -1
100
AcDbSpline
210
0
220
0
230
0
 70
    8
 71
    2
 72
    6
 73
    3
 74
    0
 42
1e-07
 43
1e-07
 40
0
 40
0
 40
0
 40
1
 40
1
 40
1
 10
117.0404
 20
20.77864
 30
0
 10
116.9254
 20
20.53307
 30
0
 10
116.9254
 20
20.10519
 30
0
  0
LINE
  5
12C
100
AcDbEntity
  8
SCS_SLE
  6
ByLayer
 62
  256
370
   -1
100
AcDbLine
 10
116.2754
 20
34.46640000000001
 11
116.9254
 21
34.46640000000001
  0
LINE
  5
12D
100
AcDbEntity
  8
SCS_SLE
  6
ByLayer
 62
  256
370
   -1
100
AcDbLine
 10
116.2754
 20
30.03130000000001
 11
116.2754
 21
34.46640000000001
  0
LINE
  5
12E
100
AcDbEntity
  8
SCS_SLE
  6
ByLayer
 62
  256
370
   -1
100
AcDbLine
 10
116.9254
 20
30.03130000000001
 11
116.2754
 21
30.03130000000001
  0
LINE
  5
12F
100
AcDbEntity
  8
SCS_SLE
  6
ByLayer
 62
  256
370
   -1
100
AcDbLine
 10
116.9254
 20
31.873
 11
116.9254
 21
30.03130000000001
  0
LINE
  5
130
100
AcDbEntity
  8
SCS_SLE
  6
ByLayer
 62
  256
370
   -1
100
AcDbLine
 10
121.7364
 20
31.873
 11
116.9254
 21
31.873
  0
LINE
  5
131
100
AcDbEntity
  8
SCS_SLE
  6
ByLayer
 62
  256
370
   -1
100
AcDbLine
 10
121.7364
 20
32.62460000000001
 11
121.7364
 21
31.873
  0
LINE
  5
132
100
AcDbEntity
  8
SCS_SLE
  6
ByLayer
 62
  256
370
   -1
100
AcDbLine
 10
116.9254
 20
32.62460000000001
 11
121.7364
 21
32.62460000000001
  0
LINE
  5
133
100
AcDbEntity
  8
SCS_SLE
  6
ByLayer
 62
  256
370
   -1
100
AcDbLine
 10
116.9254
 20
34.46640000000001
 11
116.9254
 21
32.62460000000001
  0
SPLINE
  5
134
100
AcDbEntity
  8
SCS_SLE
  6
ByLayer
 62
  256
370
   -1
100
AcDbSpline
210
0
220
0
230
0
 70
    8
 71
    2
 72
    6
 73
    3
 74
    0
 42
1e-07
 43
1e-07
 40
0
 40
0
 40
0
 40
1
 40
1
 40
1
 10
116.1324
 20
37.4992
 30
0
 10
116.1324
 20
38.9466
 30
0
 10
117.0574
 20
39.6424
 30
0
  0
SPLINE
  5
135
100
AcDbEntity
  8
SCS_SLE
  6
ByLayer
 62
  256
370
   -1
100
AcDbSpline
210
0
220
0
230
0
 70
    8
 71
    2
 72
    6
 73
    3
 74
    0
 42
1e-07
 43
1e-07
 40
0
 40
0
 40
0
 40
1
 40
1
 40
1
 10
117.1394
 20
35.40820000000001
 30
0
 10
116.1324
 20
36.11510000000001
 30
0
 10
116.1324
 20
37.4992
 30
0
  0
SPLINE
  5
136
100
AcDbEntity
  8
SCS_SLE
  6
ByLayer
 62
  256
370
   -1
100
AcDbSpline
210
0
220
0
230
0
 70
    8
 71
    2
 72
    6
 73
    3
 74
    0
 42
1e-07
 43
1e-07
 40
0
 40
0
 40
0
 40
1
 40
1
 40
1
 10
119.0274
 20
34.8575
 30
0
 10
117.9244
 20
34.8575
 30
0
 10
117.1394
 20
35.40820000000001
 30
0
  0
SPLINE
  5
137
100
AcDbEntity
  8
SCS_SLE
  6
ByLayer
 62
  256
370
   -1
100
AcDbSpline
210
0
220
0
230
0
 70
    8
 71
    2
 72
    6
 73
    3
 74
    0
 42
1e-07
 43
1e-07
 40
0
 40
0
 40
0
 40
1
 40
1
 40
1
 10
121.0494
 20
35.5012
 30
0
 10
120.2494
 20
34.8575
 30
0
 10
119.0274
 20
34.8575
 30
0
  0
SPLINE
  5
138
100
AcDbEntity
  8
SCS_SLE
  6
ByLayer
 62
  256
370
   -1
100
AcDbSpline
210
0
220
0
230
0
 70
    8
 71
    2
 72
    6
 73
    3
 74
    0
 42
1e-07
 43
1e-07
 40
0
 40
0
 40
0
 40
1
 40
1
 40
1
 10
121.8784
 20
37.4843
 30
0
 10
121.8784
 20
36.22300000000001
 30
0
 10
121.0494
 20
35.5012
 30
0
  0
SPLINE
  5
139
100
AcDbEntity
  8
SCS_SLE
  6
ByLayer
 62
  256
370
   -1
100
AcDbSpline
210
0
220
0
230
0
 70
    8
 71
    2
 72
    6
 73
    3
 74
    0
 42
1e-07
 43
1e-07
 40
0
 40
0
 40
0
 40
1
 40
1
 40
1
 10
120.9304
 20
39.5642
 30
0
 10
121.8784
 20
38.835
 30
0
 10
121.8784
 20
37.4843
 30
0
  0
SPLINE
  5
13A
100
AcDbEntity
  8
SCS_SLE
  6
ByLayer
 62
  256
370
   -1
100
AcDbSpline
210
0
220
0
230
0
 70
    8
 71
    2
 72
    6
 73
    3
 74
    0
 42
1e-07
 43
1e-07
 40
0
 40
0
 40
0
 40
1
 40
1
 40
1
 10
118.9054
 20
40.1856
 30
0
 10
120.1234
 20
40.1856
 30
0
 10
120.9304
 20
39.5642
 30
0
  0
SPLINE
  5
13B
100
AcDbEntity
  8
SCS_SLE
  6
ByLayer
 62
  256
370
   -1
100
AcDbSpline
210
0
220
0
230
0
 70
    8
 71
    2
 72
    6
 73
    3
 74
    0
 42
1e-07
 43
1e-07
 40
0
 40
0
 40
0
 40
1
 40
1
 40
1
 10
117.0574
 20
39.6424
 30
0
 10
117.7804
 20
40.1856
 30
0
 10
118.9054
 20
40.1856
 30
0
  0
SPLINE
  5
13C
100
AcDbEntity
  8
SCS_SLE
  6
ByLayer
 62
  256
370
   -1
100
AcDbSpline
210
0
220
0
230
0
 70
    8
 71
    2
 72
    6
 73
    3
 74
    0
 42
1e-07
 43
1e-07
 40
0
 40
0
 40
0
 40
1
 40
1
 40
1
 10
121.2284
 20
37.5736
 30
0
 10
121.2284
 20
38.5522
 30
0
 10
120.5284
 20
38.9892
 30
0
  0
SPLINE
  5
13D
100
AcDbEntity
  8
SCS_SLE
  6
ByLayer
 62
  256
370
   -1
100
AcDbSpline
210
0
220
0
230
0
 70
    8
 71
    2
 72
    6
 73
    3
 74
    0
 42
1e-07
 43
1e-07
 40
0
 40
0
 40
0
 40
1
 40
1
 40
1
 10
120.6064
 20
36.0834
 30
0
 10
121.2284
 20
36.54300000000001
 30
0
 10
121.2284
 20
37.5736
 30
0
  0
SPLINE
  5
13E
100
AcDbEntity
  8
SCS_SLE
  6
ByLayer
 62
  256
370
   -1
100
AcDbSpline
210
0
220
0
230
0
 70
    8
 71
    2
 72
    6
 73
    3
 74
    0
 42
1e-07
 43
1e-07
 40
0
 40
0
 40
0
 40
1
 40
1
 40
1
 10
119.0784
 20
35.624
 30
0
 10
119.9844
 20
35.624
 30
0
 10
120.6064
 20
36.0834
 30
0
  0
SPLINE
  5
13F
100
AcDbEntity
  8
SCS_SLE
  6
ByLayer
 62
  256
370
   -1
100
AcDbSpline
210
0
220
0
230
0
 70
    8
 71
    2
 72
    6
 73
    3
 74
    0
 42
1e-07
 43
1e-07
 40
0
 40
0
 40
0
 40
1
 40
1
 40
1
 10
117.3644
 20
36.1598
 30
0
 10
117.9454
 20
35.624
 30
0
 10
119.0784
 20
35.624
 30
0
  0
SPLINE
  5
140
100
AcDbEntity
  8
SCS_SLE
  6
ByLayer
 62
  256
370
   -1
100
AcDbSpline
210
0
220
0
230
0
 70
    8
 71
    2
 72
    6
 73
    3
 74
    0
 42
1e-07
 43
1e-07
 40
0
 40
0
 40
0
 40
1
 40
1
 40
1
 10
116.7834
 20
37.5439
 30
0
 10
116.7834
 20
36.69560000000001
 30
0
 10
117.3644
 20
36.1598
 30
0
  0
SPLINE
  5
141
100
AcDbEntity
  8
SCS_SLE
  6
ByLayer
 62
  256
370
   -1
100
AcDbSpline
210
0
220
0
230
0
 70
    8
 71
    2
 72
    6
 73
    3
 74
    0
 42
1e-07
 43
1e-07
 40
0
 40
0
 40
0
 40
1
 40
1
 40
1
 10
117.3694
 20
38.9223
 30
0
 10
116.7834
 20
38.4182
 30
0
 10
116.7834
 20
37.5439
 30
0
  0
SPLINE
  5
142
100
AcDbEntity
  8
SCS_SLE
  6
ByLayer
 62
  256
370
   -1
100
AcDbSpline
210
0
220
0
230
0
 70
    8
 71
    2
 72
    6
 73
    3
 74
    0
 42
1e-07
 43
1e-07
 40
0
 40
0
 40
0
 40
1
 40
1
 40
1
 10
118.9184
 20
39.4266
 30
0
 10
117.9564
 20
39.4266
 30
0
 10
117.3694
 20
38.9223
 30
0
  0
SPLINE
  5
143
100
AcDbEntity
  8
SCS_SLE
  6
ByLayer
 62
  256
370
   -1
100
AcDbSpline
210
0
220
0
230
0
 70
    8
 71
    2
 72
    6
 73
    3
 74
    0
 42
1e-07
 43
1e-07
 40
0
 40
0
 40
0
 40
1
 40
1
 40
1
 10
120.5284
 20
38.9892
 30
0
 10
119.8284
 20
39.4266
 30
0
 10
118.9184
 20
39.4266
 30
0
  0
LINE
  5
144
100
AcDbEntity
  8
SCS_SLE
  6
ByLayer
 62
  256
370
   -1
100
AcDbLine
 10
116.2754
 20
41.13237
 11
116.2754
 21
43.59176
  0
LINE
  5
145
100
AcDbEntity
  8
SCS_SLE
  6
ByLayer
 62
  256
370
   -1
100
AcDbLine
 10
121.7364
 20
41.13237
 11
116.2754
 21
41.13237
  0
LINE
  5
146
100
AcDbEntity
  8
SCS_SLE
  6
ByLayer
 62
  256
370
   -1
100
AcDbLine
 10
121.7364
 20
41.87279
 11
121.7364
 21
41.13237
  0
LINE
  5
147
100
AcDbEntity
  8
SCS_SLE
  6
ByLayer
 62
  256
370
   -1
100
AcDbLine
 10
119.4184
 20
41.87279
 11
121.7364
 21
41.87279
  0
LINE
  5
148
100
AcDbEntity
  8
SCS_SLE
  6
ByLayer
 62
  256
370
   -1
100
AcDbLine
 10
119.4184
 20
43.59176
 11
119.4184
 21
41.87279
  0
SPLINE
  5
149
100
AcDbEntity
  8
SCS_SLE
  6
ByLayer
 62
  256
370
   -1
100
AcDbSpline
210
0
220
0
230
0
 70
    8
 71
    2
 72
    6
 73
    3
 74
    0
 42
1e-07
 43
1e-07
 40
0
 40
0
 40
0
 40
1
 40
1
 40
1
 10
118.9454
 20
44.81587
 30
0
 10
119.4184
 20
44.41775
 30
0
 10
119.4184
 20
43.59176
 30
0
  0
SPLINE
  5
14A
100
AcDbEntity
  8
SCS_SLE
  6
ByLayer
 62
  256
370
   -1
100
AcDbSpline
210
0
220
0
230
0
 70
    8
 71
    2
 72
    6
 73
    3
 74
    0
 42
1e-07
 43
1e-07
 40
0
 40
0
 40
0
 40
1
 40
1
 40
1
 10
117.8354
 20
45.21398
 30
0
 10
118.4734
 20
45.21398
 30
0
 10
118.9454
 20
44.81587
 30
0
  0
SPLINE
  5
14B
100
AcDbEntity
  8
SCS_SLE
  6
ByLayer
 62
  256
370
   -1
100
AcDbSpline
210
0
220
0
230
0
 70
    8
 71
    2
 72
    6
 73
    3
 74
    0
 42
1e-07
 43
1e-07
 40
0
 40
0
 40
0
 40
1
 40
1
 40
1
 10
116.6844
 20
44.7675
 30
0
 10
117.0944
 20
45.21398
 30
0
 10
117.8354
 20
45.21398
 30
0
  0
SPLINE
  5
14C
100
AcDbEntity
  8
SCS_SLE
  6
ByLayer
 62
  256
370
   -1
100
AcDbSpline
210
0
220
0
230
0
 70
    8
 71
    2
 72
    6
 73
    3
 74
    0
 42
1e-07
 43
1e-07
 40
0
 40
0
 40
0
 40
1
 40
1
 40
1
 10
116.2754
 20
43.59176
 30
0
 10
116.2754
 20
44.32102
 30
0
 10
116.6844
 20
44.7675
 30
0
  0
SPLINE
  5
14D
100
AcDbEntity
  8
SCS_SLE
  6
ByLayer
 62
  256
370
   -1
100
AcDbSpline
210
0
220
0
230
0
 70
    8
 71
    2
 72
    6
 73
    3
 74
    0
 42
1e-07
 43
1e-07
 40
0
 40
0
 40
0
 40
1
 40
1
 40
1
 10
117.8494
 20
44.46612
 30
0
 10
117.2534
 20
44.46612
 30
0
 10
117.0404
 20
44.01964000000001
 30
0
  0
SPLINE
  5
14E
100
AcDbEntity
  8
SCS_SLE
  6
ByLayer
 62
  256
370
   -1
100
AcDbSpline
210
0
220
0
230
0
 70
    8
 71
    2
 72
    6
 73
    3
 74
    0
 42
1e-07
 43
1e-07
 40
0
 40
0
 40
0
 40
1
 40
1
 40
1
 10
118.5894
 20
44.15532
 30
0
 10
118.3794
 20
44.46612
 30
0
 10
117.8494
 20
44.46612
 30
0
  0
SPLINE
  5
14F
100
AcDbEntity
  8
SCS_SLE
  6
ByLayer
 62
  256
370
   -1
100
AcDbSpline
210
0
220
0
230
0
 70
    8
 71
    2
 72
    6
 73
    3
 74
    0
 42
1e-07
 43
1e-07
 40
0
 40
0
 40
0
 40
1
 40
1
 40
1
 10
118.7994
 20
43.34619
 30
0
 10
118.7994
 20
43.84477
 30
0
 10
118.5894
 20
44.15532
 30
0
  0
LINE
  5
150
100
AcDbEntity
  8
SCS_SLE
  6
ByLayer
 62
  256
370
   -1
100
AcDbLine
 10
118.7994
 20
41.87279
 11
118.7994
 21
43.34619
  0
LINE
  5
151
100
AcDbEntity
  8
SCS_SLE
  6
ByLayer
 62
  256
370
   -1
100
AcDbLine
 10
116.9254
 20
41.87279
 11
118.7994
 21
41.87279
  0
LINE
  5
152
100
AcDbEntity
  8
SCS_SLE
  6
ByLayer
 62
  256
370
   -1
100
AcDbLine
 10
116.9254
 20
43.34619
 11
116.9254
 21
41.87279
  0
SPLINE
  5
153
100
AcDbEntity
  8
SCS_SLE
  6
ByLayer
 62
  256
370
   -1
100
AcDbSpline
210
0
220
0
230
0
 70
    8
 71
    2
 72
    6
 73
    3
 74
    0
 42
1e-07
 43
1e-07
 40
0
 40
0
 40
0
 40
1
 40
1
 40
1
 10
117.0404
 20
44.01964000000001
 30
0
 10
116.9254
 20
43.77407
 30
0
 10
116.9254
 20
43.34619
 30
0
  0
LINE
  5
154
100
AcDbEntity
  8
Cut
  6
ByLayer
 62
  256
370
   -1
100
AcDbLine
 10
110.1772
 20
4.2926
 11
110.1772
 21
8.0518
  0
ARC
  5
155
100
AcDbEntity
  8
Cut
  6
ByLayer
 62
  256
370
   -1
100
AcDbCircle
 10
111.2948
 20
4.2926
 40
1.1176
100
AcDbArc
 50
180
 51
-90
  0
ARC
  5
156
100
AcDbEntity
  8
Cut
  6
ByLayer
 62
  256
370
   -1
100
AcDbCircle
 10
137.4654
 20
4.2926
 40
1.1176
100
AcDbArc
 50
-90
 51
0
  0
ARC
  5
157
100
AcDbEntity
  8
Cut
  6
ByLayer
 62
  256
370
   -1
100
AcDbCircle
 10
137.4654
 20
24.2824
 40
1.1176
100
AcDbArc
 50
0
 51
90
  0
LINE
  5
158
100
AcDbEntity
  8
Cut
  6
ByLayer
 62
  256
370
   -1
100
AcDbLine
 10
119.9554
 20
25.4
 11
137.4654
 21
25.4
  0
LINE
  5
159
100
AcDbEntity
  8
Cut
  6
ByLayer
 62
  256
370
   -1
100
AcDbLine
 10
111.2948
 20
25.4
 11
118.9394
 21
25.4
  0
ARC
  5
15A
100
AcDbEntity
  8
Cut
  6
ByLayer
 62
  256
370
   -1
100
AcDbCircle
 10
111.2948
 20
24.2824
 40
1.1176
100
AcDbArc
 50
90
 51
180
  0
LINE
  5
15B
100
AcDbEntity
  8
Cut
  6
ByLayer
 62
  256
370
   -1
100
AcDbLine
 10
110.1772
 20
20.5232
 11
110.1772
 21
24.2824
  0
CIRCLE
  5
15C
100
AcDbEntity
  8
Cut
  6
ByLayer
 62
  256
370
   -1
100
AcDbCircle
 10
135.6234
 20
14.2875
 40
2.1082
  0
LINE
  5
15D
100
AcDbEntity
  8
Cut
  6
ByLayer
 62
  256
370
   -1
100
AcDbLine
 10
137.4654
 20
3.175000000000001
 11
119.9554
 21
3.175000000000001
  0
LINE
  5
15E
100
AcDbEntity
  8
Cut
  6
ByLayer
 62
  256
370
   -1
100
AcDbLine
 10
119.9554
 20
25.4
 11
119.9554
 21
26.416
  0
LINE
  5
15F
100
AcDbEntity
  8
Cut
  6
ByLayer
 62
  256
370
   -1
100
AcDbLine
 10
118.9394
 20
25.4
 11
118.9394
 21
26.416
  0
LINE
  5
160
100
AcDbEntity
  8
Cut
  6
ByLayer
 62
  256
370
   -1
100
AcDbLine
 10
110.1772
 20
27.5336
 11
110.1772
 21
31.2928
  0
ARC
  5
161
100
AcDbEntity
  8
Cut
  6
ByLayer
 62
  256
370
   -1
100
AcDbCircle
 10
111.2948
 20
27.5336
 40
1.1176
100
AcDbArc
 50
180
 51
-90
  0
ARC
  5
162
100
AcDbEntity
  8
Cut
  6
ByLayer
 62
  256
370
   -1
100
AcDbCircle
 10
137.4654
 20
27.5336
 40
1.1176
100
AcDbArc
 50
-90
 51
0
  0
ARC
  5
163
100
AcDbEntity
  8
Cut
  6
ByLayer
 62
  256
370
   -1
100
AcDbCircle
 10
137.4654
 20
47.5234
 40
1.1176
100
AcDbArc
 50
0
 51
90
  0
LINE
  5
164
100
AcDbEntity
  8
Cut
  6
ByLayer
 62
  256
370
   -1
100
AcDbLine
 10
119.9554
 20
48.64100000000001
 11
137.4654
 21
48.64100000000001
  0
ARC
  5
165
100
AcDbEntity
  8
Cut
  6
ByLayer
 62
  256
370
   -1
100
AcDbCircle
 10
111.2948
 20
47.5234
 40
1.1176
100
AcDbArc
 50
90
 51
180
  0
LINE
  5
166
100
AcDbEntity
  8
Cut
  6
ByLayer
 62
  256
370
   -1
100
AcDbLine
 10
110.1772
 20
43.7642
 11
110.1772
 21
47.5234
  0
CIRCLE
  5
167
100
AcDbEntity
  8
Cut
  6
ByLayer
 62
  256
370
   -1
100
AcDbCircle
 10
135.6234
 20
37.5285
 40
2.1082
  0
LINE
  5
168
100
AcDbEntity
  8
Cut
  6
ByLayer
 62
  256
370
   -1
100
AcDbLine
 10
137.4654
 20
26.416
 11
119.9554
 21
26.416
  0
LINE
  5
169
100
AcDbEntity
  8
Cut
  6
ByLayer
 62
  256
370
   -1
100
AcDbLine
 10
118.9394
 20
26.416
 11
111.2948
 21
26.416
  0
LINE
  5
16A
100
AcDbEntity
  8
Cut
  6
ByLayer
 62
  256
370
   -1
100
AcDbLine
 10
111.2948
 20
48.64100000000001
 11
119.9554
 21
48.64100000000001
  0
LINE
  5
16B
100
AcDbEntity
  8
Bend
  6
ByLayer
 62
  256
370
   -1
100
AcDbLine
 10
128.6344
 20
0
 11
128.6344
 21
48.64100000000001
  0
LINE
  5
16C
100
AcDbEntity
  8
Cut
  6
ByLayer
 62
  256
370
   -1
100
AcDbLine
 10
138.5834
 20
47.52340063205691
 11
138.5834
 21
44.4627006320569
  0
LINE
  5
16D
100
AcDbEntity
  8
Cut
  6
ByLayer
 62
  256
370
   -1
100
AcDbLine
 10
138.5834
 20
30.5943006320569
 11
138.5834
 21
27.5336006320569
  0
LINE
  5
16E
100
AcDbEntity
  8
Cut
  6
ByLayer
 62
  256
370
   -1
100
AcDbLine
 10
138.5834
 20
24.28240092621436
 11
138.5834
 21
21.22170092621436
  0
LINE
  5
16F
100
AcDbEntity
  8
Cut
  6
ByLayer
 62
  256
370
   -1
100
AcDbLine
 10
138.5834
 20
7.353300926214366
 11
138.5834
 21
4.292600926214362
  0
LINE
  5
170
100
AcDbEntity
  8
SCS_SLE
  6
ByLayer
 62
  256
370
   -1
100
AcDbLine
 10
138.5834
 20
18.09915003640243
 11
138.5834
 21
10.47584996359884
  0
ARC
  5
171
100
AcDbEntity
  8
Cut
  6
ByLayer
 62
  256
370
   -1
100
AcDbCircle
 10
135.6234
 20
14.2875
 40
4.826
100
AcDbArc
 50
307.8317185850045
 51
52.168281414991
  0
LINE
  5
172
100
AcDbEntity
  8
SCS_SLE
  6
ByLayer
 62
  256
370
   -1
100
AcDbLine
 10
138.5834
 20
41.34015003640216
 11
138.5834
 21
33.71684996359923
  0
ARC
  5
173
100
AcDbEntity
  8
Cut
  6
ByLayer
 62
  256
370
   -1
100
AcDbCircle
 10
135.6234
 20
37.5285
 40
4.826
100
AcDbArc
 50
307.8317185850037
 51
52.1682814149968
  0
LINE
  5
174
100
AcDbEntity
  8
Cut
  6
ByLayer
 62
  256
370
   -1
100
AcDbLine
 10
138.5834
 20
21.22170092621436
 11
138.5834
 21
18.09915003640243
  0
LINE
  5
175
100
AcDbEntity
  8
Cut
  6
ByLayer
 62
  256
370
   -1
100
AcDbLine
 10
138.5834
 20
10.47584996359884
 11
138.5834
 21
7.353300926214366
  0
LINE
  5
176
100
AcDbEntity
  8
Cut
  6
ByLayer
 62
  256
370
   -1
100
AcDbLine
 10
138.5834
 20
44.4627006320569
 11
138.5834
 21
41.34015003640216
  0
LINE
  5
177
100
AcDbEntity
  8
Cut
  6
ByLayer
 62
  256
370
   -1
100
AcDbLine
 10
138.5834
 20
33.71684996359923
 11
138.5834
 21
30.5943006320569
  0
LINE
  5
178
100
AcDbEntity
  8
SCS_SLE
  6
ByLayer
 62
  256
370
   -1
100
AcDbLine
 10
118.9394
 20
26.416
 11
119.9554
 21
26.416
  0
LINE
  5
179
100
AcDbEntity
  8
SCS_SLE
  6
ByLayer
 62
  256
370
   -1
100
AcDbLine
 10
118.9394
 20
25.4
 11
119.9554
 21
25.4
  0
LINE
  5
17A
100
AcDbEntity
  8
SCS_SLE
  6
ByLayer
 62
  256
370
   -1
100
AcDbLine
 10
118.9484
 20
3.175000000000001
 11
119.9644
 21
3.175000000000001
  0
LINE
  5
17B
100
AcDbEntity
  8
SCS_SLE
  6
ByLayer
 62
  256
370
   -1
100
AcDbLine
 10
118.9484
 20
2.159000000000002
 11
119.9644
 21
2.159000000000002
  0
LINE
  5
17C
100
AcDbEntity
  8
Cut
  6
ByLayer
 62
  256
370
   -1
100
AcDbLine
 10
118.9484
 20
3.175000000000001
 11
111.2948
 21
3.175000000000001
  0
LINE
  5
17D
100
AcDbEntity
  8
Cut
  6
ByLayer
 62
  256
370
   -1
100
AcDbLine
 10
100.3135
 20
43.7642
 11
110.1772
 21
43.7642
  0
LINE
  5
17E
100
AcDbEntity
  8
Cut
  6
ByLayer
 62
  256
370
   -1
100
AcDbLine
 10
110.1772
 20
31.2928
 11
100.3135
 21
31.2928
  0
LINE
  5
17F
100
AcDbEntity
  8
Cut
  6
ByLayer
 62
  256
370
   -1
100
AcDbLine
 10
100.3135
 20
20.5232
 11
110.1772
 21
20.5232
  0
LINE
  5
180
100
AcDbEntity
  8
Cut
  6
ByLayer
 62
  256
370
   -1
100
AcDbLine
 10
110.1772
 20
8.0518
 11
100.3135
 21
8.0518
  0
LINE
  5
181
100
AcDbEntity
  8
Cut
  6
ByLayer
 62
  256
370
   -1
100
AcDbLine
 10
0
 20
0
 11
138.5834
 21
0
  0
LINE
  5
182
100
AcDbEntity
  8
Cut
  6
ByLayer
 62
  256
370
   -1
100
AcDbLine
 10
118.9484
 20
2.159000000000002
 11
94.9452
 21
2.159000000000002
  0
ENDSEC
  0
SECTION
  2
OBJECTS
  0
DICTIONARY
  5
C
330
0
100
AcDbDictionary
281
    1
  3
ACAD_GROUP
350
D
  0
DICTIONARY
  5
D
330
C
100
AcDbDictionary
281
    1
  0
PLOTSETTINGS
  5
183
100
AcDbPlotSettings
  6
1x1
 40
0
 41
0
 42
0
 43
0
  0
ENDSEC
  0
EOF
